<?xml version="1.0" encoding="UTF-8"?>
<svg id="Layer_1" data-name="Layer 1" xmlns="http://www.w3.org/2000/svg" viewBox="0 0 15.76 9.82">
  <defs>
    <style>
      .cls-1 {
        fill: #700a0d;
      }

      .cls-2 {
        fill: #710306;
      }

      .cls-3 {
        fill: #fff;
      }

      .cls-4 {
        fill: #5c0103;
      }

      .cls-5 {
        fill: #700104;
      }

      .cls-6 {
        fill: #862511;
      }

      .cls-7 {
        fill: #e9c84b;
      }

      .cls-8 {
        fill: #740605;
      }

      .cls-9 {
        fill: #f8de53;
      }

      .cls-10 {
        fill: #7f2323;
      }

      .cls-11 {
        fill: #751417;
      }

      .cls-12 {
        fill: #852411;
      }

      .cls-13 {
        fill: #710205;
      }

      .cls-14 {
        fill: #700103;
      }

      .cls-15 {
        fill: #700003;
      }

      .cls-16 {
        fill: #5c0003;
      }

      .cls-17 {
        fill: #5c0104;
      }

      .cls-18 {
        fill: #5d0104;
      }
    </style>
  </defs>
  <polygon class="cls-3" points=".07 4.7 7.87 7.97 15.69 4.69 15.62 6.37 7.93 9.68 .07 6.37 .07 4.7"/>
  <g>
    <path class="cls-2" d="M7.72,9.82c-.3-.18-.64-.3-.96-.44-1.61-.7-3.23-1.4-4.85-2.1-.03-.01-.06-.03-.09-.05-.03-.03-.1-.03-.11-.09,.01-.03,.04-.04,.06-.05,.1-.02,.18,.02,.27,.06,1.06,.45,2.11,.9,3.16,1.35,.81,.34,1.62,.69,2.42,1.04,.15,.06,.16,.06,.16-.1,0-.41,0-.83,0-1.24,0-.08-.01-.16,.04-.24,.02,0,.04,0,.05,0,.02,.03,.03,.05,.03,.09,.01,.44,0,.88,0,1.32,0,.09,0,.17,.02,.26,.03,.08-.03,.13-.07,.18h-.14Z"/>
    <path class="cls-15" d="M7.86,9.82c-.01-.07,.03-.1,.07-.14,0-.09,.07-.09,.13-.12,.83-.35,1.66-.71,2.48-1.07,.1-.04,.2-.07,.3-.1,.06-.01,.11-.03,.16-.06,.03-.02,.07-.04,.11-.05,.05-.01,.1-.03,.15-.07,.09-.04,.18-.07,.27-.11,.05-.02,.1-.04,.15-.07,.15-.09,.31-.14,.47-.21,.08-.02,.16-.03,.24-.08,.01,0,.03-.01,.04-.02,.06-.02,.11-.04,.16-.08,.11-.05,.22-.1,.34-.13,.09,.01,.17-.07,.26-.02,0,.02,0,.03,0,.05,0,.02,0,.03-.03,.03-.07,.03-.15,.02-.21,.08-.03,.02-.07,.04-.1,.06-.07,.03-.15,.04-.21,.07-.03,.05-.07,.06-.12,.07-.07,.01-.13,.03-.19,.07-.02,.01-.04,.03-.05,.04-.07,.01-.13,.03-.19,.06-.02,.01-.04,.03-.06,.04-.07,.01-.13,.03-.19,.07-.02,.01-.04,.03-.06,.04-.09,.02-.17,.07-.26,.1-.02,.01-.04,.03-.06,.04-.06,.02-.13,.03-.18,.07-.02,.01-.04,.03-.06,.04-.09,.03-.18,.04-.25,.1-.51,.22-1.01,.44-1.52,.66-.48,.21-.97,.42-1.45,.63h-.1Z"/>
    <path class="cls-15" d="M13.17,7.52c-.08,0-.16,.1-.25,.03,0-.03,.02-.04,.04-.05,.06-.02,.12-.04,.17-.08,.24-.11,.47-.21,.71-.31,.05-.01,.11-.03,.15-.06,.03-.02,.07-.03,.11-.05,.06-.01,.12-.03,.17-.06,.03-.02,.05-.03,.08-.04,.06-.01,.12-.03,.17-.07,.05-.03,.09-.06,.14-.07,.06-.01,.12-.03,.17-.06,.03-.02,.05-.03,.08-.04,.06-.01,.12-.03,.17-.07,.03-.02,.05-.03,.08-.04,.08-.02,.16-.04,.23-.1,.06-.05,.14-.08,.22-.1,.02,0,.05,0,.07,0,.04,.01,.05,.06,.08,.09v.03c-.06,.02-.11,.05-.17,.07-.07,.03-.15,.03-.21,.08,0,.02-.01,.03-.03,.03-.06,.01-.11,.05-.18,.05-.35,.15-.71,.29-1.05,.45-.25,.11-.5,.22-.75,.32-.06,.03-.12,.06-.2,.05Z"/>
    <path class="cls-15" d="M15.69,6.36s-.05,0-.07,0c.03-.55,0-1.11,.02-1.66,0-.06,0-.11,.01-.16,.04-.1,.02-.21,.02-.31,0-.6,0-1.21,0-1.81,0-.08,.01-.16-.04-.23-.05-.04-.11-.02-.17-.02-.41,.01-.81-.01-1.21-.07-.06,0-.15,0-.17-.09,.26-.02,.51,.04,.76,.05,.31,0,.61,.05,.92-.02v2.58c-.04,.14-.02,.27-.02,.41,0,.39,0,.77,0,1.16,0,.06,.03,.13-.05,.17Z"/>
    <path class="cls-15" d="M15.69,6.36c.05-.06,.04-.13,.04-.2,0-.46,0-.92,0-1.38,0-.05-.04-.12,.03-.16v1.81s-.06-.04-.07-.08Z"/>
    <path class="cls-15" d="M14.08,2.01c.28,.08,.57,.07,.86,.1,.25,.02,.5,0,.75,.01,0,.04-.02,.07-.05,.08-.28,.13-.52,.34-.8,.48-.35,.19-.71,.37-1.07,.55-.2,.1-.41,.19-.62,.28-.11,.05-.19,.1-.18,.24,0,.05,0,.11-.08,.11q-.09-.2-.31-.11c-.65,.26-1.3,.49-1.95,.74-.29,.1-.59,.2-.87,.32-.32,.1-.63,.21-.92,.35-.07,0-.13,.03-.2,.04-.06-.01-.11,.02-.17,.05-.12,.05-.26,.08-.37,.14-.18,.12-.36,.04-.54,0-.48-.16-.94-.36-1.42-.53-.07-.02-.15-.11-.21,0-.05,.08,0,.26,.09,.31,.13,.07,.26,.12,.4,.18,.11,.05,.16,.12,.16,.24,0,.56,0,1.13,0,1.69,0,.07,0,.14-.09,.17-.22-.04-.42-.13-.61-.26-.11-.25-.17-.52-.24-.78-.17-.59-.35-1.18-.52-1.77-.04-.13-.11-.21-.24-.25-.14-.05-.27-.1-.41-.16-.18-.08-.2-.07-.27,.11-.22,.54-.44,1.08-.65,1.61-.03,.07-.05,.16-.15,.17-.14-.02-.26-.08-.38-.16-.07-.08-.06-.17-.06-.26,0-.6,0-1.2,0-1.8,0-.21-.06-.32-.26-.39-.19-.06-.36-.15-.54-.24-.2-.09-.2-.09-.29,.12-.09,.21-.17,.42-.25,.63-.02,.06-.03,.14-.11,.14-.08,0-.09-.08-.1-.14-.1-.36-.21-.71-.3-1.07-.04-.16-.13-.26-.28-.33-.21-.1-.41-.22-.61-.34-.05-.03-.12-.05-.13-.13,.01-.05,.04-.06,.09-.04,1.89,0,3.7-.38,5.45-1.06,.75-.29,1.49-.63,2.2-1.02,.11-.06,.18-.03,.27,.02,1.86,1.06,3.85,1.71,5.98,1.96Z"/>
    <path class="cls-15" d="M0,6.33c0-.56,0-1.12,0-1.68,.03-.26,0-.51,.01-.77,0-.34-.01-.69,0-1.03,.02-.02,.04-.02,.06,0,.04,.06,.04,.13,.04,.2,0,.54,0,1.09,0,1.63,0,.47,0,.93,0,1.4,0,.08,0,.16-.02,.24-.03,.05-.06,.06-.1,0Z"/>
    <path class="cls-15" d="M0,6.33s.04,.02,.06,.03c.2,.05,.38,.15,.57,.21,.04,.04,.09,.06,.15,.08,.23,.11,.48,.2,.72,.3,.06,.03,.12,.06,.18,.08,.04,.02,.09,.03,.19,.06-.01,.01-.14,.05-.15,.06-.01,.02-.03,.02-.05,.01-.37-.15-.74-.31-1.1-.46-.15-.06-.3-.14-.46-.2-.1-.04-.12-.09-.1-.18Z"/>
    <path class="cls-8" d="M.04,2.84c0,.35,0,.7,0,1.04,0,.02-.02,.02-.03,0,0-.35,0-.7,0-1.05,0,0,.01,0,.02-.01,0,0,.01,0,.02,.01Z"/>
    <path class="cls-15" d="M.06,2.84h-.01s-.01,0-.01,0,0,0,0,0c-.04-.18,0-.36-.02-.54,0-.06,.01-.13-.01-.19,.05-.13,.12,0,.17,0-.03,.01-.05,.03-.08,.04,.03,.18,.02,.36,.02,.54,0,.06,0,.12-.06,.16Z"/>
    <path class="cls-12" d="M0,3.89s.02,0,.03,0c-.02,.26,.04,.51-.03,.77,0-.26,0-.51,0-.77Z"/>
    <path class="cls-6" d="M0,2.11c.07,.24,.01,.49,.03,.73,0,0-.02,0-.03,0,0-.24,0-.49,0-.73Z"/>
    <path class="cls-15" d="M1.67,7.17s.03,0,.05-.01c.04,.01,.08,.02,.1,.07-.05-.02-.1-.04-.15-.06Z"/>
    <path class="cls-15" d="M14.12,7.13s0-.01,0-.01c.34-.16,.68-.31,1.04-.44,.02,.01,.02,.03,0,.04-.32,.15-.64,.3-.97,.42-.03,.01-.06,.02-.08,0Z"/>
    <path class="cls-15" d="M14.12,7.13s.05,0,.08,0c-.33,.16-.66,.32-1.02,.42,0-.01,0-.03,0-.04,.31-.13,.63-.26,.94-.39Z"/>
    <path class="cls-15" d="M10.94,8.53c.06-.1,.16-.1,.25-.1-.08,.05-.16,.09-.25,.1Z"/>
    <path class="cls-15" d="M11.5,8.28c.07-.06,.15-.11,.26-.1-.08,.05-.16,.1-.26,.1Z"/>
    <path class="cls-15" d="M15.38,6.62c.05-.08,.13-.08,.21-.08-.06,.04-.13,.08-.21,.08Z"/>
    <path class="cls-15" d="M12.94,7.67c.05-.08,.13-.09,.21-.08-.06,.05-.13,.08-.21,.08Z"/>
    <path class="cls-15" d="M12.62,7.8c.06-.06,.13-.08,.21-.07-.07,.04-.13,.08-.21,.07Z"/>
    <path class="cls-15" d="M15.17,6.72s0-.03,0-.04c.06,0,.12-.05,.18-.03-.05,.04-.11,.07-.18,.07Z"/>
    <path class="cls-15" d="M12.06,8.04c.05-.06,.12-.08,.19-.06-.06,.03-.12,.08-.19,.06Z"/>
    <path class="cls-15" d="M11.81,8.15c.05-.06,.11-.08,.19-.07-.06,.03-.11,.09-.19,.07Z"/>
    <path class="cls-15" d="M11.25,8.39c.05-.06,.11-.08,.18-.07-.06,.03-.11,.08-.18,.07Z"/>
    <path class="cls-15" d="M12.3,7.94c.05-.06,.12-.08,.19-.07-.06,.03-.12,.08-.19,.07Z"/>
    <path class="cls-7" d="M10.68,6.8c-.28,.14-.56,.27-.85,.36-.08-.05-.1-.14-.13-.22-.04-.1-.09-.13-.2-.09-.21,.09-.43,.19-.64,.27-.1,.04-.13,.12-.16,.21-.05,.12-.04,.27-.17,.35-.07,.12-.2,.11-.3,.17-.11,.06-.24,.11-.35,.16,0-.02,0-.03,0-.05,0-.03,0-.05,0-.08,.28-.87,.58-1.74,.87-2.61,.02-.05,.03-.1,.08-.13,.29-.17,.6-.31,.94-.35,.14,.12,.17,.3,.24,.46,.23,.48,.45,.97,.67,1.46,.01,.03,.02,.05,.03,.08Z"/>
    <path class="cls-15" d="M7.89,7.93s0,.03-.02,.04c-.02,0-.03,0-.05,0-.2-.08-.41-.17-.61-.25-.06-.06-.06-.14-.06-.21,0-.52,0-1.03,0-1.55,0-.25,.05-.28,.28-.18,.16,.07,.33,.11,.46,.24,.03,.05,.03,.11,.03,.17,0,.48,0,.97,0,1.45,0,.1-.04,.19-.03,.29Z"/>
    <path class="cls-15" d="M12.15,7.86c.08-.04,.16-.09,.25-.11-.06,.1-.16,.1-.25,.11Z"/>
    <path class="cls-15" d="M12.4,7.76c.05-.04,.11-.07,.18-.07-.05,.06-.11,.08-.18,.07Z"/>
    <path class="cls-15" d="M11.52,8.14s.09-.07,.15-.06c-.04,.05-.09,.07-.15,.06Z"/>
    <path class="cls-15" d="M11.1,8.32s.1-.06,.16-.06c-.03,.07-.09,.07-.16,.06Z"/>
    <path class="cls-15" d="M10.86,8.42c.05-.02,.1-.04,.15-.06-.03,.07-.09,.08-.15,.06Z"/>
    <path class="cls-15" d="M15.16,6.57c.08-.05,.16-.09,.25-.1-.06,.09-.16,.1-.25,.1Z"/>
    <path class="cls-15" d="M14.91,6.68c.06-.03,.11-.08,.19-.07-.05,.06-.11,.08-.19,.07Z"/>
    <path class="cls-15" d="M14.67,6.78c.06-.03,.11-.08,.18-.07-.05,.06-.11,.08-.18,.07Z"/>
    <path class="cls-15" d="M14.35,6.92c.06-.04,.11-.08,.19-.07-.05,.06-.11,.08-.19,.07Z"/>
    <path class="cls-15" d="M14.1,7.02c.06-.03,.12-.08,.19-.07-.05,.06-.11,.08-.19,.07Z"/>
    <path class="cls-15" d="M12.96,7.52c.06-.03,.11-.08,.18-.07-.05,.06-.11,.08-.18,.07Z"/>
    <path class="cls-15" d="M13.86,7.13s.1-.06,.15-.06c-.03,.07-.09,.07-.15,.06Z"/>
    <path class="cls-9" d="M15.69,4.69c-.22,.09-.45,.18-.67,.27-.04,.02-.08,.05-.13,.03-.07-.07-.09-.16-.14-.24-.05-.09-.1-.12-.2-.07-.23,.1-.46,.2-.68,.29-.08,.04-.12,.1-.15,.18-.05,.13-.07,.28-.16,.4-.21,.15-.46,.22-.7,.31-.04-.04-.01-.09,0-.13,.27-.79,.52-1.58,.8-2.37,.02-.06,.04-.14,.1-.17,.35-.18,.69-.37,1.04-.55,.07,.02,.09,.09,.12,.14,.24,.53,.5,1.06,.74,1.59,.03,.06,.05,.12,.03,.18,0,.05,0,.09-.01,.14Z"/>
    <path class="cls-16" d="M15.7,4.55c-.3-.64-.59-1.28-.89-1.92,.29-.17,.59-.35,.88-.52,.04,.01,.03,.04,.03,.07,0,.76,0,1.53,0,2.29,0,.03-.01,.05-.02,.08Z"/>
    <path class="cls-9" d="M1.74,5.39c-.21-.05-.4-.14-.59-.25-.11-.42-.23-.84-.35-1.26-.07-.25-.16-.49-.18-.75,.04,.53,.01,1.07,.02,1.6,0,.06,0,.12-.04,.17-.19-.03-.35-.14-.53-.2,0-.56,0-1.11,0-1.67,0-.06,0-.13,0-.19,0-.18,0-.35,0-.53,0-.06-.02-.12,.03-.16,.29,.16,.58,.33,.87,.49,.09,.05,.13,.1,.16,.21,.1,.41,.23,.82,.34,1.22,0,.03,.02,.07,.06,.09,.12-.3,.24-.6,.35-.91,.04-.11,.08-.12,.19-.07,.27,.13,.54,.25,.81,.36,.1,.04,.14,.1,.14,.2,0,.67,0,1.34,0,2,0,.07-.02,.14,.03,.2-.25-.08-.5-.17-.72-.31-.04-.31-.01-.63-.02-.94,0-.28-.02-.55,0-.78-.15,.47-.38,.96-.56,1.47Z"/>
    <path class="cls-9" d="M7.98,2.33c.54-.45,1.17-.38,1.79-.34,.71,.04,1.4,.24,2.1,.31,.35,.04,.71,.08,1.06,.12,.11,.01,.27,0,.29,.13,.02,.13-.12,.19-.22,.24-.68,.33-1.39,.47-2.15,.33-.19-.04-.36-.12-.51-.24-.22-.18-.46-.34-.68-.51-.11-.09-.18-.1-.25,.06-.22,.49-.61,.78-1.14,.88-.06,.01-.12,.03-.18,0,.37-.32,.33-.63-.11-.99Z"/>
    <path class="cls-9" d="M6.14,2.23c-.43,.19-.81,.36-1.2,.52-.73,.31-1.45,.24-2.17-.02-.06-.02-.15-.05-.15-.13,0-.09,.1-.1,.17-.11,.38-.06,.77-.11,1.15-.17,.56-.09,1.12-.2,1.69-.28,.47-.07,.94-.08,1.41-.03,.12,.01,.22,.06,.31,.14,.17,.15,.34,.28,.49,.45,.27,.31,.17,.62-.22,.72-.39,.1-.78,.08-1.17-.03-.19-.05-.29-.17-.32-.37-.04-.21-.04-.42,.02-.68Z"/>
    <path class="cls-9" d="M4.08,6.39c-.24-.07-.47-.17-.69-.29,.08-.01,.08-.09,.1-.14,.23-.58,.47-1.16,.7-1.74,.04-.12,.09-.11,.19-.07,.2,.08,.41,.16,.62,.24,.07,.03,.11,.06,.13,.14,.25,.89,.51,1.77,.77,2.65-.26-.07-.51-.17-.73-.32-.08-.12-.09-.26-.13-.39-.03-.08-.07-.14-.15-.18-.17-.07-.34-.14-.51-.22-.12-.06-.18-.02-.22,.1-.02,.08-.04,.16-.08,.23Z"/>
    <path class="cls-16" d="M10.68,6.8c-.06-.02-.07-.08-.09-.13-.27-.6-.55-1.2-.82-1.8,0-.02-.01-.04-.02-.07,0-.03,.01-.06,.04-.07,.28-.1,.55-.19,.83-.29,.08,.08,.03,.19,.07,.29,.17-.05,.32-.13,.48-.2,.18-.07,.24-.04,.24,.15,0,.55,0,1.1,0,1.66,0,.05,0,.1-.04,.15-.23,.1-.46,.2-.69,.3Z"/>
    <path class="cls-16" d="M13.77,3.19c-.3,.89-.6,1.78-.9,2.67-.24,.1-.47,.2-.71,.29-.05-.06-.05-.13-.05-.2,0-.53,0-1.06,0-1.59,0-.17,.06-.29,.23-.34,.19-.06,.34-.2,.55-.18,.03-.02,.04-.04,.04-.07-.05-.19,.07-.27,.22-.33,.21-.08,.41-.17,.62-.26Z"/>
    <path class="cls-7" d="M12.89,3.85c-.21,.09-.42,.19-.64,.27-.08,.03-.11,.07-.11,.15,0,.63,0,1.25,0,1.88-.25,.15-.52,.25-.79,.34,0-.66,0-1.31,0-1.99-.26,.11-.49,.21-.75,.32v-.38c.61-.23,1.22-.46,1.83-.69,.09-.04,.18-.07,.27-.11q.19-.08,.18,.12s0,.06-.01,.09Z"/>
    <path class="cls-9" d="M7.86,6.01c-.21-.09-.43-.17-.66-.27,0,.67,0,1.32,0,1.98-.26-.06-.49-.18-.71-.3,.07-.03,.04-.09,.04-.14,0-.57,0-1.14,0-1.71,0-.09-.02-.15-.12-.18-.15-.06-.3-.12-.45-.19-.08-.04-.16-.42-.09-.47,.04-.03,.09,0,.13,.02,.5,.19,1,.39,1.5,.58,.02,0,.04,.01,.07,.02,.11,.05,.25,.04,.32,.17,.02,.16,.06,.33-.04,.49Z"/>
    <path class="cls-16" d="M7.86,6.01c0-.17,0-.35,0-.52,.08-.07,.18-.09,.27-.13,.11-.05,.22-.1,.35-.13,.05-.01,.09-.08,.16-.05,.06,0,.1-.1,.18-.03-.1,.4-.26,.8-.39,1.19-.17,.53-.35,1.06-.53,1.6-.05-.06-.03-.12-.03-.18,0-.58,0-1.16,0-1.74Z"/>
    <path class="cls-10" d="M8.14,5.39c-.09,.04-.19,.07-.28,.11-.09-.05-.19-.09-.28-.14,.18,.03,.35,.1,.53,0,.04-.01,.04,0,.03,.03Z"/>
    <path class="cls-11" d="M8.14,5.39s-.02-.02-.03-.03c.11-.09,.25-.12,.38-.14,.01,0,.01,.02,0,.02,0,0,0,.01-.01,.01-.13,.02-.24,.09-.35,.14Z"/>
    <path class="cls-1" d="M8.49,5.25s0-.02,0-.03c.04-.06,.07-.1,.14-.04-.05,.02-.09,.05-.14,.07Z"/>
    <path class="cls-15" d="M1.51,7c.07,0,.12,.02,.17,.07-.07,0-.12-.02-.17-.07Z"/>
    <path class="cls-15" d="M.63,6.61c.05,0,.1,.02,.14,.07-.06,0-.11,0-.14-.07Z"/>
    <path class="cls-17" d="M8.39,9.08c0-.33,0-.65,0-.97,0-.09,.06-.1,.11-.13,.06-.02,.12-.05,.19-.07v.41c.22-.22,.25-.6,.63-.65-.09,.14-.16,.27-.25,.4-.06,.08-.06,.14,0,.22,.06,.08,.13,.17,.17,.26,.02,.06,.16,.11,.04,.19-.17,.12-.22,.11-.32-.04-.05-.07-.09-.14-.14-.22-.09,.08-.12,.16-.12,.26,0,.28,0,.28-.31,.35Z"/>
    <path class="cls-17" d="M13.56,5.56c.05-.16,.1-.33,.15-.49,.02-.06,.06-.09,.12-.12,.26-.11,.52-.22,.78-.33,.06-.02,.11-.05,.14,.03,.04,.12,.12,.22,.14,.35-.44,.19-.88,.37-1.32,.56Z"/>
    <path class="cls-16" d="M10.83,7.05c0,.24,0,.49,0,.73,0,.15-.07,.27-.19,.35-.1,.07-.21,.13-.32,.16-.24,.07-.29,.03-.29-.21,0-.21,0-.42,0-.63,0-.16,.13-.14,.21-.17,.05-.02,.04,.06,.04,.09,0,.19,0,.38,0,.58,0,.07-.03,.17,.09,.17,.1,0,.19-.05,.19-.18,0-.18,.02-.36,0-.54-.02-.21,.05-.33,.28-.35Z"/>
    <path class="cls-17" d="M12.36,6.42c-.06,.09-.08,.16-.13,.22-.15,.18-.15,.34,0,.51,.03,.03,.06,.07,.06,.1,0,.06,.15,.11,.02,.17-.09,.04-.2,.15-.27-.04-.03-.08-.09-.15-.14-.22-.07,.08-.11,.16-.09,.25,.04,.22-.08,.3-.28,.33,0-.31,0-.62,0-.94,0-.15,.17-.12,.27-.18v.36c.21-.17,.2-.52,.55-.58Z"/>
    <path class="cls-17" d="M8.53,7.69c.05-.48,.36-.7,.79-.81,.08-.02,.15-.06,.22-.1,.1-.06,.14-.02,.17,.07,.03,.1,.07,.2,.11,.3-.37,.16-.73,.31-1.1,.47-.06,.03-.12,.07-.2,.06Z"/>
    <path class="cls-17" d="M13.73,5.86c0,.23,0,.46,0,.68,0,.26-.36,.56-.61,.52-.08-.01-.12-.05-.12-.14,0-.23,0-.46,0-.7,0-.16,.15-.11,.25-.21,0,.26,0,.47,0,.69,0,.06-.06,.16,.06,.16,.1,0,.19-.05,.18-.19,0-.17,.01-.35,0-.52-.02-.19,.04-.28,.25-.3Z"/>
    <path class="cls-18" d="M14.86,5.39c.09-.01,.13,.04,.16,.11,.01,.04,.02,.09-.04,.1-.06,.02-.13,.11-.2,0-.03-.05-.08-.03-.12,0-.06,.03-.1,.06-.09,.13,0,.06,.03,.08,.08,.1,.07,.02,.15,.03,.22,.05,.15,.05,.19,.14,.14,.28-.06,.16-.37,.37-.54,.35-.07,0-.12-.04-.14-.11-.01-.06,0-.11,.08-.13,.06-.02,.12-.08,.15,.03,.02,.05,.06,.04,.1,.02,.06-.03,.12-.05,.12-.13,0-.06,0-.11-.07-.12-.08-.02-.16-.04-.23-.06-.16-.05-.2-.15-.12-.29,.11-.19,.29-.27,.5-.31Z"/>
    <path class="cls-15" d="M4.08,7.43c.03-.22,.06-.44,.09-.66,.3,0,.18,.21,.16,.35-.02,.24-.07,.47-.11,.71-.23-.01-.32-.15-.34-.36,0-.14-.03-.27-.05-.45-.1,.21-.06,.42-.14,.59-.28-.02-.33-.19-.34-.43-.01-.26-.07-.52-.11-.79,.21,.02,.25,.13,.26,.3,0,.2,.05,.4,.08,.63,.03-.22,.06-.41,.09-.6,0-.05-.04-.16,.05-.14,.08,.01,.21,0,.23,.16,.02,.18,.06,.36,.07,.55,0,.05,.02,.1,.06,.14Z"/>
    <path class="cls-15" d="M1.74,5.39s-.04-.06-.02-.1c.2-.51,.39-1.01,.62-1.51,0,.32,0,.64,0,.96,0,.24,0,.49,0,.73,0,.06,.02,.12-.03,.16-.19-.08-.38-.16-.57-.24Z"/>
    <path class="cls-15" d="M.61,4.9c0-.61,0-1.23,0-1.84,0,0,0,0,.01,0,.13,.46,.26,.93,.4,1.39,.05,.18,.11,.36,.16,.54,.01,.05,.07,.11-.01,.15-.18-.08-.37-.16-.55-.24Z"/>
    <path class="cls-13" d="M5.25,8.25c-.16-.01-.25-.09-.29-.24-.05-.21-.12-.41-.22-.61,0,.17,0,.33,0,.5,0,.05,.04,.14-.04,.13-.07,0-.16-.03-.15-.15,0-.31,0-.63,0-.95,.16,.04,.3,.07,.33,.27,.03,.15,.09,.3,.16,.45v-.5c.17,0,.22,.08,.21,.23-.01,.29,0,.58,0,.87Z"/>
    <path class="cls-5" d="M4.08,6.39c-.05-.16,.06-.28,.1-.41,.02-.06,.07-.02,.1,0,.22,.09,.43,.19,.65,.28,.06,.03,.11,.06,.12,.13,.03,.16,.11,.3,.11,.46-.36-.15-.73-.31-1.09-.46Z"/>
    <path class="cls-5" d="M6.69,8.56c.09,.05,.21,.04,.21,.19,0,.06,.07,.11,.15,.13,.03,0,.06,0,.08-.03,.04-.07,0-.12-.04-.17-.04-.07-.11-.13-.16-.2-.07-.08-.14-.16-.19-.25-.05-.08-.09-.18-.01-.27,.08-.09,.18-.06,.27-.02,.24,.08,.36,.23,.35,.44-.1-.03-.2-.03-.21-.18,0-.07-.1-.14-.17-.11-.07,.04-.04,.12,0,.18,.09,.12,.19,.23,.28,.35,.1,.12,.17,.27,.07,.39-.11,.13-.26,.03-.38-.03-.18-.09-.25-.22-.24-.42Z"/>
    <path class="cls-5" d="M6.52,8.8c-.18-.07-.35-.15-.53-.22-.07-.03-.08-.06-.08-.13,0-.31,0-.63,0-.96,.2,.08,.38,.16,.57,.24,.09,.03,.06,.1,.05,.17-.06-.02-.12-.05-.18-.07-.06-.01-.13-.12-.19-.03-.06,.08,.01,.24,.12,.28q.17,.07,.18,.2c-.1,0-.19-.08-.29-.1q-.05,.3,.23,.41t.12,.2Z"/>
    <path class="cls-14" d="M5.7,8.43c-.17-.01-.24-.08-.23-.25,.02-.24,0-.47,0-.71,0-.05-.04-.15,.03-.14,.07,0,.19,.01,.19,.15,0,.32,0,.64,0,.95Z"/>
    <path class="cls-4" d="M9.21,5.7c.08,.18,.15,.37,.24,.55,.03,.06,0,.08-.05,.1-.13,.06-.27,.11-.4,.17-.03,.01-.05,.04-.08,.01-.03-.03,0-.05,0-.08,.08-.25,.16-.5,.24-.75,.01,0,.03,0,.04,0Z"/>
    <path class="cls-4" d="M13.92,4.4c.11-.33,.2-.6,.3-.93,.1,.23,.18,.41,.27,.6,.02,.05,0,.08-.05,.1-.16,.07-.32,.13-.52,.22Z"/>
    <path class="cls-14" d="M4.88,5.73c-.16-.07-.29-.13-.42-.19-.04-.02-.1-.02-.07-.09,.07-.19,.15-.39,.24-.63,.09,.33,.17,.61,.25,.9Z"/>
    <path class="cls-15" d="M1.26,6.16s-.05-.09-.08-.13c-.02-.02-.04-.03-.02-.07,.15-.22,.13-.35-.09-.5-.16-.11-.35-.17-.54-.24v.66q0,.45,.44,.6c.09,.03,.2,.08,.28,0,.09-.09,.07-.21,.02-.32Zm-.44-.66c.11,.02,.21,.08,.19,.22,0,.06,0,.11-.08,.1-.12-.02-.21-.06-.14-.25,0,0-.07-.09,.03-.07Zm.15,.83c-.07-.01-.2,0-.2-.13,0-.08,0-.17,0-.27,.14,.05,.28,.09,.28,.27,0,.06,.01,.15-.08,.14Z"/>
    <path class="cls-15" d="M2.18,6.69c0-.11-.01-.21-.1-.28-.02-.02,0-.02,.01-.04,.13-.13,.12-.35-.03-.47-.17-.13-.37-.19-.58-.28,0,.31,.01,.59,0,.88-.01,.2,.07,.26,.25,.29v-.43c.2,.03,.26,.16,.23,.33-.02,.19,.06,.29,.25,.31-.04-.1-.03-.2-.03-.29Zm-.24-.53c0,.06-.05,.07-.1,.06-.22-.05-.08-.22-.13-.35,.19,.04,.26,.13,.23,.29Z"/>
    <path class="cls-15" d="M3.1,6.64c0-.3-.23-.53-.53-.56-.13-.01-.2,.03-.2,.17,0,.09,0,.19,0,.28,0,.06,0,.12,0,.17,0,.32,.17,.52,.48,.57,.17,.03,.23-.01,.24-.18,0-.15,0-.3,0-.45Zm-.31,.45c-.08,0-.16-.04-.17-.14,0-.1,0-.21,0-.31,0-.08,0-.15,0-.23,0-.05-.04-.13,.04-.15,.07,0,.13,.03,.17,.1,.04,.06,.03,.12,.03,.18,0,.13,0,.27,0,.4,0,.06,.02,.14-.08,.14Z"/>
  </g>
</svg>