<?xml version="1.0" encoding="UTF-8"?>
<svg id="Layer_1" data-name="Layer 1" xmlns="http://www.w3.org/2000/svg" viewBox="0 0 511.43 511.81">
  <defs>
    <style>
      .cls-1 {
        fill: #f4f4f4;
      }

      .cls-2 {
        fill: #f6f6f6;
      }

      .cls-3 {
        fill: #dd1a00;
      }

      .cls-4 {
        fill: #f1f1f1;
      }

      .cls-5 {
        fill: #f3f3f3;
      }

      .cls-6 {
        fill: #f8f8f8;
      }

      .cls-7 {
        fill: #f2f2f2;
      }
    </style>
  </defs>
  <path class="cls-5" d="M340.5,510.82c0,.33-.01,.66-.01,.99h-31.99c1.66-1.65,3.76-.95,5.67-.97,8.78-.07,17.55-.03,26.33-.02Z"/>
  <path class="cls-7" d="M172.54,.99c0-.33,.01-.66,.01-.99h29.99c-2.35,1.9-5.1,.9-7.66,.95-7.45,.14-14.9,.05-22.35,.04Z"/>
  <path class="cls-7" d="M180.54,510.81c6.11,0,12.22-.03,18.33,.01,1.6,.01,3.35-.46,4.66,.98h-22.99c-.35-.22-.47-.44-.36-.66,.12-.22,.23-.33,.35-.33Z"/>
  <path class="cls-4" d="M331.5,.99c-5.78,0-11.56,.03-17.33-.01-1.6-.01-3.35,.46-4.66-.98h21.99c.35,.22,.47,.44,.36,.66-.12,.22-.23,.33-.35,.33Z"/>
  <path class="cls-6" d="M331.5,.99c0-.33,0-.66,0-.99h14c0,.33,0,.66,0,.99-4.67,0-9.33,0-14,0Z"/>
  <path class="cls-1" d="M510.44,145.94c.33,0,.66,0,.99,0v13.99c-2.09-4.54-.51-9.35-.99-14Z"/>
  <path class="cls-6" d="M180.54,510.81c0,.33,0,.66,0,.99h-14c0-.33,0-.66,0-.99,4.67,0,9.33,0,14,0Z"/>
  <path class="cls-2" d="M511.43,361.86c-.33,0-.66,0-.99,.01,.51-4.32-1.16-8.81,.99-13.01v13Z"/>
  <path class="cls-3" d="M511.43,159.94c-1.11-4.47-.22-9.01-.51-13.51-.02-3.99-.27-7.98-.41-11.96-.82-24.03-7.64-46.42-19.92-66.8-19.22-31.88-47.54-51.97-83.53-61.43-20.52-5.39-41.47-5.63-62.45-5.74-4.43,0-8.86,0-13.28,0-7.27-.29-14.57,.6-21.82-.51h-106.96c-9.78,1.16-19.59,.18-29.39,.51-20.11,.27-40.25-.42-60.11,3.96C77.8,12.24,48.74,29.56,27.66,59.22,14.08,78.35,6.93,100.07,3.09,123-.17,142.46,.36,162.16,.27,181.74c-.24,57.93-.6,115.87,.32,173.8,.26,16.35,1.54,32.57,5.47,48.49,6.63,26.82,19.15,50.37,39.47,69.32,19.26,17.96,42.42,28.4,67.95,34.05,17.71,3.92,35.68,3.65,53.63,3.89,4.52,0,9.03,0,13.55,0,7.62,.31,15.27-.63,22.87,.51h104.96c10.33-1.13,20.69-.2,31.05-.51,8.82-.14,17.64-.3,26.45-.35,19.23-.11,37.78-3.45,55.72-10.1,35-12.97,60.19-36.63,75.81-70.48,10.09-21.88,13.94-45.01,13.4-68.97,.25-4.17-.55-8.39,.51-12.53V159.94Zm-45.29,161.22c-.11,21.79-.13,43.78-4.39,65.42-7.99,40.57-31.97,65.39-72.34,74.2-8.4,1.83-16.97,2.65-25.61,3.16-58.21,3.41-116.48,1.91-174.71,1.58-24.58-.14-49.51,.32-73.62-6.69-28.55-8.31-48.66-25.82-59.02-53.98-5.44-14.8-7.07-30.2-8.04-45.86-.91-14.64-.16-29.28-.93-43.87-1.96-37.11-.81-74.24-.59-111.34,.07-12.76-.05-25.61,.79-38.37,1.13-17.33,1.26-34.8,6.47-51.66,11.04-35.69,35.8-55.61,71.73-62.71,11.57-2.29,23.34-2.56,35.11-3.24,32.12-1.83,64.25,.02,89.53-.81,35.15,0,63.49-.57,91.79,.2,18.98,.51,38.1,1.04,56.62,6.65,27.94,8.46,47.54,25.65,57.71,53.25,5.22,14.17,7.05,28.85,7.92,43.86,3.28,56.72,1.88,113.48,1.58,170.21Z"/>
  <path class="cls-3" d="M423.47,119.22c0,17.48-13.08,30.71-30.39,30.73-16.51,.01-30.56-13.93-30.6-30.34-.04-18.74,15.41-30.92,31.47-30.9,14.91,.02,30.99,14.58,29.52,30.51Z"/>
  <path class="cls-3" d="M256.56,124.94c-70.14-1.24-131.46,55.5-131.57,130.73-.11,74.44,58.16,131.81,131.76,131.71,75.93-.11,130.4-62.15,131.08-130.51,.72-72.24-60.6-133.97-131.27-131.93Zm85.12,132.85c-.73,44.38-38.69,84.33-85.16,83.09-45.53,1.54-85.61-38.71-85.3-85.55,.31-46,40.03-85.22,85.98-84.65,45.84,.58,85.27,38.76,84.48,87.1Z"/>
</svg>