<?xml version="1.0" encoding="UTF-8"?>
<svg id="Layer_1" data-name="Layer 1" xmlns="http://www.w3.org/2000/svg" viewBox="0 0 266.07 511.85">
  <defs>
    <style>
      .cls-1 {
        fill: #f5f5f5;
      }

      .cls-2 {
        fill: #dd1a00;
      }

      .cls-3 {
        fill: #f9f9f9;
      }
    </style>
  </defs>
  <path class="cls-2" d="M231,.99c10.41,.68,20.82,1.44,31.24,1.98,3.66,.19,3.76,2.42,3.75,5.11-.04,10.83-.01,21.66-.01,32.49,0,13.16-.16,26.33,.09,39.49,.08,4.07-1.28,5.05-5.13,5-14.66-.2-29.32-.19-43.98-.04-8.97,.1-17.81,.95-26.15,4.96-9.72,4.68-14.56,12.69-16.75,22.76-.89,4.07-1.11,8.19-1.09,12.36,.09,18.49,.03,36.99,.04,55.48q0,6.36,6.6,6.37c25.82,0,51.64,.06,77.46-.07,3.87-.02,5.75,.4,5.02,5.12-1.87,12.08-3.22,24.24-4.76,36.37-1.46,11.48-2.9,22.96-4.35,34.44-.19,1.47-.32,2.96-.62,4.41q-2.25,10.7-13.41,10.7c-20.16,0-40.32,.13-60.47-.1-4.44-.05-5.57,1.21-5.57,5.6,.14,76.14,.1,152.28,.1,228.42H79.05c0-75.63,0-151.27,0-226.9q0-7-6.8-7.01c-22.32,0-44.64-.11-66.96,.09-4.2,.04-5.31-1.24-5.29-5.35,.17-26.82,.17-53.64,0-80.46-.03-4.14,1.13-5.37,5.3-5.34,22.82,.19,45.64,0,68.46,.18,4.09,.03,5.41-1.04,5.37-5.27-.2-22.82-.32-45.65-.03-68.47,.34-27.11,7.47-52.32,24.4-73.8,14.56-18.47,34.06-29.91,56.93-35.38,6.42-1.54,12.88-3.12,19.57-3.14,2.2-1.29,4.81,.36,7.01-.99h30.99c4.25,1.45,8.75-.39,13,.99Z"/>
  <path class="cls-3" d="M231,.99c-4.32-.5-8.81,1.19-13-.99h12.99c0,.33,0,.66,0,.99Z"/>
  <path class="cls-1" d="M187.01,0c-2.11,1.91-4.68,.62-7,.99,0-.33,0-.66,0-.99h7Z"/>
</svg>