<?xml version="1.0" encoding="UTF-8"?>
<svg id="Layer_1" data-name="Layer 1" xmlns="http://www.w3.org/2000/svg" viewBox="0 0 449.57 511.81">
  <defs>
    <style>
      .cls-1 {
        fill: #f6f6f6;
      }

      .cls-2 {
        fill: #dd1a00;
      }

      .cls-3 {
        fill: #f3f3f3;
      }
    </style>
  </defs>
  <path class="cls-3" d="M319.56,0c0,.34,0,.67-.01,1.01-1.92,1.72-4.3,1.6-6.61,1.6-23.25,.04-46.49,.04-69.74,0-2.31,0-4.69,.1-6.61-1.61,0-.33,0-.66,0-1h82.97Z"/>
  <path class="cls-1" d="M170.63,510.82c0,.33,0,.66,0,.99h-21.99c0-.33,0-.66,0-.99,7.34-2.55,14.67-2.55,22.01,0Z"/>
  <path class="cls-2" d="M170.63,510.82c-7.34,0-14.67,0-22.01,0-17.24-.79-33.71-4.97-49.66-11.36-23.27-9.32-42.95-23.84-59.5-42.47-18.08-20.36-29.92-43.99-35.87-70.66C1.12,375.26-.09,363.96,0,352.85c.18-20.97,4.16-41.45,12.61-60.91,7.21-16.61,16.97-31.38,29.15-44.84,18.64-20.59,41.33-34.68,67.27-43.74,12.36-4.32,25.23-6.41,38.35-7.7,10.2-1.01,20.18-.17,30.25,.28,6.47,.29,6.97,.89,6.97,7.28,0,23.98,0,47.97,0,71.95,0,6.31-.04,6.32-6.08,4.86-42.09-10.2-84.49,16.15-92.43,58.66-5.4,28.96,3.61,53.62,26.57,72.84,15.02,12.58,32.42,18.09,51.63,17.14,17.18-.85,32.5-7.15,45.68-18.59,13.73-11.92,21.75-26.88,25.22-44.52,.16-.81,.42-1.64,.37-2.45-.61-9.82,1.04-19.56,1.04-29.36-.02-110.92,0-221.84,0-332.76,27.65,0,55.31,0,82.96,0,.7,29.67,10.02,56.2,28.81,79.3,20.67,25.42,47.36,40.61,79.42,46.39,5.64,1.02,11.48,1.83,17.33,1.27,3.21-.3,4.43,1.22,4.42,4.41-.06,24.81-.11,49.62,.04,74.43,.02,3.95-1.88,4.16-4.92,4.16-26.04,.02-51.01-5.32-75.05-15.06-16.67-6.75-32.4-15.29-46.77-26.2-.75-.57-1.35-1.7-2.49-1.18-1.13,.52-.72,1.73-.77,2.67-.06,1.16-.02,2.33-.02,3.5,0,45.62,.16,91.25-.09,136.87-.07,12.98,1.71,25.88,1.04,38.84-.92,17.87-2.48,35.64-8.52,52.73-8.03,22.71-20.14,42.72-37.07,60.03-21.89,22.38-48.02,36.87-78.29,44.08-8.51,2.03-17.13,3.85-26,3.58Z"/>
</svg>