<?xml version="1.0" encoding="UTF-8"?>
<svg id="Layer_2" data-name="Layer 2" xmlns="http://www.w3.org/2000/svg" xmlns:xlink="http://www.w3.org/1999/xlink" viewBox="0 0 572.57 325.65">
  <defs>
    <style>
      .cls-1 {
        fill: #1c0200;
      }

      .cls-2 {
        fill: #939393;
      }

      .cls-3 {
        fill: #f8971d;
      }

      .cls-4 {
        fill: #636464;
      }

      .cls-5 {
        fill: url(#linear-gradient-2);
      }

      .cls-6 {
        fill: #262626;
      }

      .cls-7 {
        fill: #236935;
      }

      .cls-8 {
        fill: #fff;
      }

      .cls-9 {
        fill: #555755;
      }

      .cls-10 {
        fill: #707071;
      }

      .cls-11 {
        fill: #fcaf25;
      }

      .cls-12 {
        fill: #5a5b5c;
      }

      .cls-13 {
        fill: #fba919;
      }

      .cls-14 {
        fill: #666766;
      }

      .cls-15 {
        stroke: #f2f2f3;
      }

      .cls-15, .cls-16 {
        stroke-width: 1.81px;
      }

      .cls-15, .cls-16, .cls-17, .cls-18, .cls-19, .cls-20 {
        stroke-miterlimit: 10;
      }

      .cls-15, .cls-17, .cls-18, .cls-21, .cls-19, .cls-22, .cls-20 {
        fill: none;
      }

      .cls-23 {
        fill: #e55a25;
        fill-rule: evenodd;
      }

      .cls-24 {
        fill: url(#linear-gradient-6);
      }

      .cls-25 {
        fill: #151515;
      }

      .cls-16 {
        fill: #25b34b;
        filter: url(#drop-shadow-1);
        stroke: #231f20;
      }

      .cls-26 {
        fill: #727373;
      }

      .cls-27 {
        fill: #601310;
      }

      .cls-28 {
        fill: #3f2000;
      }

      .cls-29 {
        fill: #111;
      }

      .cls-30 {
        fill: #333;
      }

      .cls-17 {
        stroke-width: .29px;
      }

      .cls-17, .cls-18, .cls-19, .cls-20 {
        stroke: #601412;
      }

      .cls-31 {
        fill: #474748;
      }

      .cls-32 {
        opacity: .99;
      }

      .cls-33 {
        fill: #b94118;
      }

      .cls-34 {
        fill: #f7cd1f;
      }

      .cls-35 {
        fill: #070808;
      }

      .cls-36 {
        fill: #101010;
      }

      .cls-37 {
        fill: #767878;
      }

      .cls-38 {
        fill: #a36409;
      }

      .cls-39 {
        fill: #d9d9d8;
      }

      .cls-40 {
        fill: #828282;
      }

      .cls-41 {
        fill: #ab3b13;
      }

      .cls-42 {
        fill: #c2900d;
      }

      .cls-43 {
        fill: #9f3810;
      }

      .cls-44 {
        fill: #181818;
      }

      .cls-45 {
        fill: #bd441a;
      }

      .cls-46 {
        fill: #e3a125;
      }

      .cls-18 {
        stroke-width: .37px;
      }

      .cls-47 {
        fill: #0f0e0e;
      }

      .cls-48 {
        fill: #171717;
      }

      .cls-49 {
        fill: url(#linear-gradient-5);
      }

      .cls-50 {
        fill: #2a160f;
      }

      .cls-51 {
        fill: #878787;
      }

      .cls-52 {
        fill: #e19826;
      }

      .cls-53 {
        fill: #40403f;
      }

      .cls-54 {
        fill: #353535;
      }

      .cls-55 {
        fill: url(#linear-gradient-7);
      }

      .cls-56 {
        fill: #ababab;
      }

      .cls-57 {
        fill: #2a150c;
      }

      .cls-58 {
        fill: #dadbdc;
      }

      .cls-59 {
        fill: #963209;
      }

      .cls-19 {
        stroke-width: .3px;
      }

      .cls-60 {
        fill: #d2d2d1;
      }

      .cls-61 {
        fill: #3d1f00;
      }

      .cls-62 {
        fill: url(#linear-gradient-3);
      }

      .cls-63 {
        fill: #1a1a1a;
      }

      .cls-64 {
        fill: #7a7a7a;
      }

      .cls-22 {
        stroke: #080707;
        stroke-dasharray: 0 0 2.46 2.46;
        stroke-width: .98px;
      }

      .cls-65 {
        fill: #bcbec0;
      }

      .cls-66 {
        fill: url(#linear-gradient);
      }

      .cls-67 {
        fill: #f15623;
      }

      .cls-68 {
        fill: #636565;
      }

      .cls-69 {
        fill: #fdba13;
      }

      .cls-70 {
        fill: #1e1e1e;
      }

      .cls-71 {
        fill: #aa3d24;
      }

      .cls-72 {
        fill: url(#linear-gradient-4);
      }

      .cls-73 {
        fill: #c4c4c4;
      }

      .cls-74 {
        fill: #010101;
      }

      .cls-75 {
        fill: #230400;
      }

      .cls-76 {
        fill: url(#linear-gradient-8);
      }

      .cls-20 {
        stroke-width: .32px;
      }
    </style>
    <filter id="drop-shadow-1" filterUnits="userSpaceOnUse">
      <feOffset dx="0" dy="5.21"/>
      <feGaussianBlur result="blur" stdDeviation="0"/>
      <feFlood flood-color="#000" flood-opacity="1"/>
      <feComposite in2="blur" operator="in"/>
      <feComposite in="SourceGraphic"/>
    </filter>
    <linearGradient id="linear-gradient" x1="363.94" y1="178.38" x2="367.93" y2="174.4" gradientUnits="userSpaceOnUse">
      <stop offset="0" stop-color="#c2900d"/>
      <stop offset=".64" stop-color="#e2a812"/>
    </linearGradient>
    <linearGradient id="linear-gradient-2" x1="359.84" y1="190.58" x2="373.77" y2="176.65" gradientUnits="userSpaceOnUse">
      <stop offset="0" stop-color="#c2900d"/>
      <stop offset=".47" stop-color="#fdba13"/>
    </linearGradient>
    <linearGradient id="linear-gradient-3" x1="359.08" y1="208.76" x2="374.57" y2="193.27" gradientUnits="userSpaceOnUse">
      <stop offset="0" stop-color="#c2900d"/>
      <stop offset=".53" stop-color="#fdba13"/>
    </linearGradient>
    <linearGradient id="linear-gradient-4" x1="360.27" y1="222.06" x2="372.2" y2="210.13" gradientUnits="userSpaceOnUse">
      <stop offset="0" stop-color="#c2900d"/>
      <stop offset=".37" stop-color="#fdba13"/>
    </linearGradient>
    <linearGradient id="linear-gradient-5" x1="244.66" y1="44.68" x2="270.33" y2="46.93" gradientTransform="translate(372.16) rotate(-180) scale(1 -1)" gradientUnits="userSpaceOnUse">
      <stop offset="0" stop-color="#603913"/>
      <stop offset=".82" stop-color="#1a0000"/>
    </linearGradient>
    <linearGradient id="linear-gradient-6" x1="293.96" y1="125.61" x2="328.24" y2="125.61" gradientTransform="translate(-34.19 20.95) rotate(-6.66)" gradientUnits="userSpaceOnUse">
      <stop offset=".07" stop-color="#393839"/>
      <stop offset=".33" stop-color="#363536"/>
      <stop offset=".47" stop-color="#2e2d2f"/>
      <stop offset=".59" stop-color="#202022"/>
      <stop offset=".69" stop-color="#0d0c0f"/>
      <stop offset=".73" stop-color="#040407"/>
    </linearGradient>
    <linearGradient id="linear-gradient-7" x1="272.25" y1="96.48" x2="318.28" y2="108.81" gradientUnits="userSpaceOnUse">
      <stop offset=".1" stop-color="#a7a9ac"/>
      <stop offset=".39" stop-color="#a4a6a9"/>
      <stop offset=".56" stop-color="#9c9ea1"/>
      <stop offset=".69" stop-color="#8f9093"/>
      <stop offset=".79" stop-color="#7f7f82"/>
    </linearGradient>
    <linearGradient id="linear-gradient-8" x1="462.79" y1="119.57" x2="462.79" y2="70.27" gradientUnits="userSpaceOnUse">
      <stop offset="0" stop-color="#bfbfbf"/>
      <stop offset="1" stop-color="#4f4f4f"/>
    </linearGradient>
  </defs>
  <g id="Layer_1-2" data-name="Layer 1">
    <g>
      <path class="cls-16" d="M49.59,31.99l31.02,3.8,29.45,6.15,47.94-9.23,30.39,28.58,48.56,1.63,19.9-4.88,79.58-1.99,10.5,5.07,28.2,3.98,6.58-7.24-8.77-3.8,21.93-1.81,2.82,7.6,10.5,.45,5.33,6.51-11.44,5.34,18.17,18.63,3.13,4.16s-8.46,9.5-8.62,10.58,.47,9.59,.47,9.59l15.35,7.15-3.29,8.95,4.23,6.51,14.8-1.09,11.28-6.78,13.39,1.09s15.04,11.67,15.04,12.35,13.39,2.98,13.39,2.98c0,0,1.64,10.99,.94,10.99s-12.45,6.78-12.45,6.78h-30.31l-34.54,2.44-43.71,10.72-23.73,1.63-11.2,10.36-13.94,.45-.16,7.06,20.36-1.18,6.42-7.06,28.98,4.25,30.08,12.39,.57,18.63,11.02-6.69,26.47,4.6,13.92-.8,21.31-7.38,10.99,4.68,6.5,10.41,59.47,31.01-21.32,2.24-19.53,2.05-15.39,34.85-26.95,6.96-5.18,12.17-27-15.59-15.19-6.18,8.33-12.39-30.55-23.32-18.07-3.27-20.04,15.52-19.25-10.56-15.2-6.04-8.25-17.44-12.38-19.09-10.34-9.95,6.89-13.75,4.39-6.96-21.62-.45,6.11-8.59-3.29-15.02-35.25,2.8-31.49-1.27-35.25,6.96s3.09-29.78,3.21-30.26,3.17-5.97,3.17-5.97l17.51-13.36,8.69-12.01-32.66-10.45-23.62,.95-4.23,8.68-.12,4.27-20.8,1.76-7.52,6.31-4.58-7.6s-13.16,1.56-13.86,1.42-31.84-11.74-31.84-11.74l-46.76-5.9-13.04-8.62-5.64-6.92L1.97,76.54l1.17-10.31,14.57-1.22-3.29-4.21,5.17-4.61-.94-9.9,11.51,.27,8.93-6.11-1.64-5.02,11.75-1.9,.39-1.54Z"/>
      <path class="cls-15" d="M236.72,62.63l6.58,4.79,6.11,4.75s.88,14.65,1.62,15.33-1.38,6.24-1.38,6.24l6.11,.95-1.64,6.11-22.82,10.05"/>
      <polyline class="cls-15" points="342.22 58.66 342.22 62.63 334.94 66.2 336.35 74.21 315.67 76.51 310.97 82.35 326.59 84.38 345.75 86.74 346.69 90.08 357.5 86.74 366.9 94.01 386.4 97.95 363.84 113.14 351.15 116.13 354.68 121.83 367.13 124.41 364.78 130.24 340.11 135.12 323.89 145.3 331.18 148.56 326.48 156.29 312.85 158.6 301.04 164.58"/>
      <path class="cls-15" d="M363.04,178.02l-2.48-2.93h-4.11s-1.17-3.73-1.17-3.93,.94-16.28,.94-16.28l-7.99,1.36-6.34-2.17-2.35,2.98-7.87,.07-10.46,4-8.34-2.51"/>
      <g>
        <polygon class="cls-14" points="362.62 229.04 379.29 213.03 389.68 202.3 398.51 198.49 399.12 202.9 386.39 217.87 373.61 231.18 368.43 229.79 362.62 229.04"/>
        <polygon class="cls-33" points="339.45 233.74 367.21 249.53 394.7 233.66 364.4 215.16 339.45 233.74"/>
        <polygon class="cls-67" points="345.35 226.41 367.11 238.97 389.91 225.8 366.09 214.44 345.35 226.41"/>
        <polygon class="cls-69" points="362.39 226.14 363.48 172.56 367.03 169.89 370.59 172.56 371.67 226.14 367.03 228.82 362.39 226.14"/>
        <polygon class="cls-41" points="371.58 224.69 377.65 219.96 369.11 215.83 368.72 224.01 371.58 224.69"/>
        <polygon class="cls-56" points="367.05 168.05 367.05 175.24 370.6 172.56 367.05 168.05"/>
        <polygon class="cls-42" points="367.05 175.24 367.05 228.82 371.69 226.14 370.6 172.56 367.05 175.24"/>
        <polygon class="cls-59" points="367.11 238.97 367.21 249.53 394.7 233.66 389.91 225.8 367.11 238.97"/>
        <polygon class="cls-33" points="339.45 233.74 345.35 226.41 367.11 238.97 367.21 249.53 339.45 233.74"/>
        <polygon class="cls-73" points="367.03 168.05 367.05 175.24 363.48 172.56 367.03 168.05"/>
        <path class="cls-66" d="M363.49,172.62l3.57,2.68v6.19s-1.55-2.4-1.55-2.4c-.74-1.15-1.25-2.44-1.5-3.78l-.51-2.68Z"/>
        <path class="cls-5" d="M367.05,181.49h0c-1.13-1.79-2.38-3.54-3-5.97l-.56-2.95-.33,16.19c-.16,4.38,3,7.32,3.88,9.01v-16.28Z"/>
        <path class="cls-62" d="M362.78,206.02c.9,1.88,2.22,6.96,4.26,10.71v-18.97c-1.14-1.79-3.04-3.15-3.89-9.01l-.37,17.27Z"/>
        <path class="cls-72" d="M362.51,220.94c-.19,4.38,3.52,6.19,4.53,7.88v-12.45c-1.27-1.79-3.5-8.59-4.25-10.35l-.28,14.92Z"/>
      </g>
      <g>
        <polygon class="cls-14" points="468.03 245.94 483.1 232.97 495.06 222.55 497.15 221.84 499.1 220.39 498.04 221.96 497.75 223.07 486.81 235.85 472.81 252.25 469.03 251.7 468.03 245.94"/>
        <polygon class="cls-33" points="438.23 257.29 465.99 273.09 493.48 257.21 464.87 237.99 438.23 257.29"/>
        <polygon class="cls-67" points="444.13 249.91 465.89 262.48 488.69 249.31 464.88 237.94 444.13 249.91"/>
        <polygon class="cls-41" points="472.91 246.94 475.98 243.24 468.18 239.52 464.77 242.55 472.91 246.94"/>
        <polygon class="cls-59" points="465.89 262.52 465.99 273.09 493.48 257.21 488.69 249.36 465.89 262.52"/>
        <polygon class="cls-33" points="438.23 257.29 444.13 249.96 465.89 262.52 465.99 273.09 438.23 257.29"/>
        <polygon class="cls-14" points="475.43 245.61 465.42 251.36 455.43 245.74 465.39 239.8 475.43 245.61"/>
        <polygon class="cls-52" points="464 197.55 464.35 194.96 464.54 194.79 464.54 197.83 464 197.55"/>
        <polygon class="cls-52" points="466.32 197.55 465.97 194.96 465.78 194.79 465.78 197.83 466.32 197.55"/>
        <path class="cls-13" d="M471,246.27s-2.28,1.74-5.55,1.74-5.14-1.44-5.14-1.44l.98-5.13s1.15,1.58,4.16,1.58c3.2,0,3.92-1.92,3.92-1.92l1.63,5.18Z"/>
        <path class="cls-4" d="M463.5,242.76s-1.48-.43-2.2-1.32l2.2-43.61s.42-.63,1.04,0l-1.04,44.93Z"/>
        <path class="cls-26" d="M467.18,242.78s-.55,.24-1.68,.24-2.02-.24-2.02-.24l1.06-45.01s.52-1.03,1.24-.02l1.4,45.03Z"/>
        <path class="cls-68" d="M467.18,242.78s1.49-.25,2.2-1.66l-2.45-43.29s-.57-.73-1.15,0l1.4,44.95Z"/>
        <path class="cls-53" d="M461.3,241.14s.88,1.62,4.17,1.62,3.9-1.94,3.9-1.94v.26s-.6,1.94-3.88,1.94-4.21-1.59-4.21-1.59v-.28Z"/>
        <path class="cls-53" d="M460.32,246.57l.09-.47s1.51,1.53,5.11,1.53,5.36-1.77,5.36-1.77l.13,.42s-2.3,1.74-5.49,1.74c-3.51,0-5.2-1.44-5.2-1.44Z"/>
        <polygon class="cls-11" points="464.54 197.83 464.54 194.79 465.1 194.21 465.21 194.21 465.78 194.79 465.78 194.96 465.78 197.83 464.54 197.83"/>
        <polygon class="cls-11" points="465.21 194.21 465.1 194.21 465.11 193.13 465.21 193.13 465.21 194.21"/>
        <polygon class="cls-40" points="455.43 246.59 465.43 252.25 465.42 251.36 455.43 245.74 455.43 246.59"/>
        <polygon class="cls-40" points="475.44 246.39 465.43 252.25 465.42 251.36 475.43 245.61 475.44 246.39"/>
        <polygon class="cls-10" points="455.16 247.26 465.43 253.14 465.42 252.25 455.15 246.4 455.16 247.26"/>
        <polygon class="cls-10" points="475.59 247.07 465.43 253.14 465.42 252.25 475.59 246.29 475.59 247.07"/>
        <polygon class="cls-9" points="454.92 247.97 465.43 254.01 465.42 253.11 454.92 247.12 454.92 247.97"/>
        <polygon class="cls-9" points="475.78 247.75 465.43 254.01 465.42 253.11 475.77 246.98 475.78 247.75"/>
        <polygon class="cls-31" points="454.72 248.71 465.44 254.9 465.43 254.01 454.71 247.85 454.72 248.71"/>
        <polygon class="cls-31" points="476.02 248.4 465.44 254.9 465.43 254.01 476.02 247.62 476.02 248.4"/>
        <polygon class="cls-54" points="454.36 249.35 465.43 255.79 465.42 254.89 454.35 248.5 454.36 249.35"/>
        <polygon class="cls-54" points="476.31 248.99 465.43 255.79 465.42 254.89 476.31 248.21 476.31 248.99"/>
        <polygon class="cls-6" points="454.09 250.05 465.5 256.67 465.48 255.78 454.08 249.19 454.09 250.05"/>
        <polygon class="cls-6" points="476.66 249.56 465.44 256.67 465.43 255.78 476.66 248.78 476.66 249.56"/>
      </g>
      <path class="cls-14" d="M148.64,35.01l1.9,.02c.52,0,1.04-.05,1.55-.16,.75-.16,2.07-.35,3.68-.17,1.42,.16,3.43-.65,3.35,4.19,0,0,2.13,.85,3.25,.47,0,0-.99,2.44-3.73,1.95,0,0-5.51,7.44-6.09,9.08s-1.7,4.49-6.15,8.25c-1.5,1.27-2.1,6.87-2.1,6.87,0,0-2.09,6.71-8.14,6.89,0,0-3.68,.35-5.67,3.27s-3.49,3.21-3.49,3.21c0,0-3.88,1.77-6.53,4.11-2.15,1.89-2.38,2.44-2.38,2.44,0,0-2.11-.42-1.9-1.94,.08-.6,.35-.65,.35-.65,0,0,5.04-2.15,6.46-3.35s3.87-3.11,3.94-3.2-.26-2.15,.41-2.93c0,0-.66-.56-2.24,.33s-7.99,5.61-7.99,5.61c0,0-.98,.88-2.11-.81-.61-.91,.52-1.25,.52-1.25,0,0,2.35-.41,2.99-.9s6.57-4.89,6.57-4.89c0,0,1.08-5.41,4.82-8.45s4.49-4.52,4.49-4.52l1.37-8.47s.21-.83-.63-.95c-.43-.06-4.9,4.04-4.9,4.04,0,0-.28,1.47-.7,1.67s-1.7,.53-1.75,.17,.53-2.19,1.16-2.77,6.52-5.39,6.52-5.39l1.19-.21s-.66-2.65-.98-2.89-2.24,1.01-2.35,1.11-3.05,2.82-3.05,2.82c0,0,.04,.93-.21,1.11s-2.12,.85-2.31,.37,.46-2.27,.67-2.47,7.65-6.18,7.65-6.18c0,0,1.36-1.18,1.95,.66s.63,3.59,2.75,4.64,8.15-4.22,8.27-4.34,.33-1.54-.97-1.53-3.19-.72-2.02-3.13c.12-.25,.26-.47,.42-.68,.51-.69,1.34-1.08,2.2-1.07Z"/>
      <g>
        <g>
          <polygon class="cls-67" points="86.39 81.99 108.65 94.46 151.94 69.47 130.22 56.93 86.39 81.99"/>
          <polygon class="cls-59" points="108.49 94.37 110.2 108.55 160.08 79.73 151.94 69.47 108.49 94.37"/>
          <polygon class="cls-33" points="78.7 89.6 86.39 81.99 108.49 94.37 110.2 108.55 78.7 89.6"/>
        </g>
        <g>
          <path class="cls-21" d="M131.58,57.72c-.8,1.02-1.71,2.59-1.74,4.55-.07,3.53-1.18,4.6-1.18,4.6,0,0-2.28,3.6-3.23,7.01-.77,2.76-.66,3.34-.66,3.34,0,0-2,.79-2.65-.59-.26-.55-.06-.73-.06-.73,0,0,3.05-4.55,3.58-6.33,.53-1.78,1.54-4.72,1.55-4.83,0-.1-1.39-1.65-1.25-2.68,0,0-.85-.11-1.7,1.5-.84,1.6-3.64,9.07-3.64,9.07,0,0-.34,1.27-2.21,.47-1-.43-.24-1.33-.24-1.33,0,0,1.75-1.63,2.02-2.38,.27-.75,2.84-7.68,2.84-7.68,0,0-.08-.19-.19-.53l-36.43,20.83,22.26,12.47,43.28-24.99-20.35-11.75Z"/>
          <path class="cls-71" d="M120.17,69.37c-.27,.75-2.02,2.38-2.02,2.38,0,0-.76,.9,.24,1.33,1.87,.8,2.21-.47,2.21-.47,0,0,2.79-7.46,3.64-9.07,.84-1.6,1.7-1.5,1.7-1.5-.14,1.03,1.26,2.58,1.25,2.68,0,.1-1.02,3.04-1.55,4.83-.53,1.78-3.58,6.33-3.58,6.33,0,0-.2,.18,.06,.73,.65,1.39,2.65,.59,2.65,.59,0,0-.11-.58,.66-3.34,.95-3.41,3.23-7.01,3.23-7.01,0,0,1.11-1.06,1.18-4.6,.04-1.96,.94-3.53,1.74-4.55l-1.37-.79-7.4,4.23c.11,.34,.19,.53,.19,.53,0,0-2.57,6.93-2.84,7.68Z"/>
        </g>
        <g>
          <path class="cls-61" d="M111.37,15.88s-1.62-3.46,.95-4.48c0,0-.87,1.79,.15,2.45,.11,.07-1.1,2.02-1.1,2.02Z"/>
          <path class="cls-75" d="M127.8,48.38s.04,3.92,2.33,6.13,6.08,3.47,5.27,9.93c-.2,1.63,.98,1.02,.98,1.02,0,0-1.91,2.09-2.25-1.24,0,0-1.36,3.03,2.64,2.82,0,0-1.52,2.21-4.26-1-1.49-1.74-1.86-3.53-2.03-4.89-.14-1.09-.54-2.14-1.16-3.05l-2.7-3.96s-2.25-3.28,1.19-5.78Z"/>
          <path class="cls-49" d="M105.73,20.87l1.25-1.44c.34-.39,.63-.83,.88-1.29,.36-.67,1.07-1.81,2.25-2.92,1.04-.98,1.72-3.03,5.36,.15,0,0,2.02-1.07,2.45-2.18,0,0,1.23,2.33-.92,4.11,0,0,2.12,9.01,3,10.51s2.33,4.2,2.33,10.02c0,1.96,3.89,6.04,3.89,6.04,0,0,3.77,5.93,0,10.67,0,0-2.12,3.03-1.16,6.44s.19,4.74,.19,4.74c0,0-1.15,4.1-1.08,7.64,.05,2.87,.33,3.39,.33,3.39,0,0-1.69,1.34-2.71,.19-.41-.45-.27-.68-.27-.68,0,0,1.61-5.23,1.61-7.09s.12-4.97,.1-5.07-1.81-1.19-1.97-2.21c0,0-.85,.14-1.2,1.92s-.88,9.73-.88,9.73c0,0,.04,1.31-1.98,1.08-1.08-.12-.61-1.21-.61-1.21,0,0,1.21-2.06,1.25-2.86s.51-8.17,.51-8.17c0,0-3.43-4.32-3.34-9.14s-.55-6.35-.55-6.35l-5.58-6.52s-.5-.7-1.13-.13c-.32,.29-.08,6.36-.08,6.36,0,0,.94,1.16,.82,1.61s-.69,1.63-1,1.45-1.33-1.82-1.37-2.68,.1-8.46,.1-8.46l.61-1.04s-2.45-1.21-2.84-1.12-.67,2.37-.67,2.51c0,.15,.18,4.15,.18,4.15,0,0,.74,.57,.72,.88s-.72,2.17-1.21,2-1.43-1.82-1.45-2.1,.22-9.83,.22-9.83c0,0-.02-1.8,1.76-1.06s3.15,1.84,5.31,.9,2.04-8.95,2.02-9.11-.96-1.25-1.8-.25-2.62,1.97-3.7-.48c-.11-.25-.19-.51-.25-.75-.2-.84,.04-1.72,.6-2.37Z"/>
          <path class="cls-75" d="M115.47,15.39s2.48-2.22,.14-3.51c-.82-.45-1.23-.22-1.23-.22,0,0,2.06,.71,1.19,1.9,0,0-.82-1.35-1.72-1.39,0,0,1.31,1.14,1.06,1.72,0,0-1.06-1.61-3.02-.51,0,0,1.55-.53,1.92,.78,0,0-2.13-.94-3.35,1.11,0,0,2.36-1.62,4.38-.09,.44,.34,.64,.22,.64,.22Z"/>
          <path class="cls-50" d="M106.83,37.52c1.86-1.22,4.33-1.03,6.35-.3,0,0-.17,.43-.17,.43-1.92-.85-4.26-1.19-6.18-.13h0Z"/>
          <path class="cls-75" d="M117.03,17.27s3.39-.6,3.56,1.11c0,0-1.51-.57-2.37-.25,0,0-.43,.76,.22,1.47s2.08,2.78,2.41,5.31c0,0-.49-.67-1.23-.8,0,0,3.07,4.03,3.39,6.03,0,0-2.1-2.84-3.47-3.19s-3.22-9.62-2.51-9.7Z"/>
          <path class="cls-57" d="M107.7,40.33c-.06-.54,.74-.39,1.04-.26,2.37,1.52,5.28,1.34,7.99,1.21,0,0,.03,.51,.03,.51-1.6,.06-3.19,.02-4.78-.23-1.21-.11-2.27-.73-3.3-1.33-.34-.15-.78-.26-.98,.1h0Z"/>
          <path class="cls-28" d="M124.51,76.78s-1.72-1.9-3-.4c0,0-.08,.83,1.1,1.04,1.06,.19,1.9-.64,1.9-.64Z"/>
          <path class="cls-28" d="M119.17,73.75s-1.33-1.42-2.57-.3c0,0-.27,.75,.11,1.05s1.62,.37,2.24-.28c.21-.22,.23-.46,.23-.46Z"/>
          <ellipse class="cls-1" cx="112.95" cy="18.05" rx="1.01" ry=".68" transform="translate(-.51 32.6) rotate(-16.39)"/>
          <g class="cls-32">
            <path class="cls-57" d="M121.6,61.92c-1.71-1.67-3.21-3.67-4.2-5.85-.83-2.91-.47-6.28-2.58-8.68,2.19,1.81,2.32,4.99,2.81,7.57,.08,1.22,1.05,2.59,1.63,3.62,.71,1.16,1.45,2.3,2.33,3.34h0Z"/>
          </g>
        </g>
      </g>
      <g>
        <polygon class="cls-67" points="253.39 117.28 281.56 132.51 327.24 106.32 299.48 90.93 253.39 117.28"/>
        <polygon class="cls-59" points="281.56 132.51 283.36 147.42 335.8 117.11 327.24 106.32 281.56 132.51"/>
        <polygon class="cls-33" points="245.3 125.29 253.39 117.28 281.56 132.51 283.36 147.42 245.3 125.29"/>
      </g>
      <g>
        <path class="cls-12" d="M294.49,91.8s3.92,7.27,6.62,7.5-2.96-7.87,.45-6.59l-.43-2.04-6.63,1.13Z"/>
        <path class="cls-35" d="M286.65,90.15s-13.6,3.93-13.37,8.8c0,0-.29,1.03,.56,2.07,0,0,5.48-5.7,8.74-7.19s4.07-3.68,4.07-3.68Z"/>
        <g>
          <path class="cls-47" d="M302.61,84.4s2.6-2.61,4.64-2.4c1.28,.13,1.57,1.36,1.61,2.26,.02,.55-.33,1.05-.86,1.2-1.19,.33-2.48,.38-4.68,.51l-.71-1.57Z"/>
          <g>
            <g>
              <path class="cls-24" d="M294.42,118.54s13.7,4.99,5.14,12.25c-7.67,6.5-15.73-2.36-18.56-4.37s-10.15-8.35-8.62-21.28c1.06-9.01,16.55-17.23,26.71-20.06,4.07-1.13,4.48-1.08,4.48-1.08l.61,1.75s-39.18,20.09-9.75,32.8Z"/>
              <circle class="cls-58" cx="293.2" cy="127.45" r="1.17"/>
              <ellipse class="cls-58" cx="299.25" cy="121.21" rx=".48" ry=".91" transform="translate(35.61 307.6) rotate(-57.31)"/>
              <path class="cls-25" d="M294.11,131.37c-1,2.82-7.17,1.77-9.54,1.74-3.16-.1-6.85,.89-8.39,3.92,2.52-5.03,8.65-4.08,13.29-4.15,1.33-.17,3.36-.21,4.04-1.52,0,0,.59,.02,.59,.02h0Z"/>
              <path class="cls-25" d="M301.31,125.35c-.02-.51,.26-.71,.48-.95,.7-.62,1.58-.93,2.44-1.22,1.82-.66,6.1-.73,4.08-3.68-.67-.97-1.57-1.77-2.51-2.48,1.57,1.07,5,4.04,1.94,5.42-1.66,.62-3.46,.83-5,1.75-.38,.22-.99,.66-1.01,1.07,0,0-.41,.1-.41,.1h0Z"/>
              <path class="cls-25" d="M295.94,131.69c1.01,1.62-.09,3-1.75,3.25-3.24,.74-6.83-1-9.82,.76-.54,.38-.78,1.13-.52,1.75-.29-.61-.09-1.4,.46-1.82,1.67-1.19,3.91-1,5.86-.96,1.78,.09,6.82,.34,5.27-2.64,0,0,.49-.33,.49-.33h0Z"/>
              <path class="cls-25" d="M301.39,126.32c1.12-1.64,3.12-2.14,4.97-2.13,1.67,.09,3.83,.32,4.82-1.35-.83,1.73-3.17,1.78-4.82,1.74-1.64,.03-3.56,.6-4.45,2.02,0,0-.52-.28-.52-.28h0Z"/>
            </g>
            <path class="cls-44" d="M280.08,125.63s-6.94-2.69-7.42-5.24c0,0,3.31,1.67,2.58-.4,0,0,3.51,5.02,4.84,5.64Z"/>
          </g>
        </g>
        <path class="cls-55" d="M312.2,104.11c-.76-4.4-7.53-7.91-13.94-9.23-4.08-.84-.13,5.62-1.59,5.33-7.54-1.51-6.18-7.19-7.2-7.37-1.08-.19-1.72-.28-1.72-.28,0,0-12.9-1.1-12.9-5.31,0-5.65,12.9-7.02,12.9-7.02,0,0,8.51-.82,11.48,.89,0,0,14.07-4.81,18.22,1.68,0,0-9.95,1.17-8.03,4.05,.34,.51,1.85,1.31,3.17,1.98,8.57,4.33,8.19,22.01,1.72,26.24,0,0,4.01,12.74-10.09,17.52,0,0,9.65-11.28,4.45-16.13,0,0-3.81-4.18-12.52,.11,0,0,3.06-5.38,13.8-5.1,0,0,3.14-2.26,2.26-7.36Z"/>
        <circle class="cls-58" cx="282.57" cy="84.66" r="1.17"/>
        <path class="cls-48" d="M273.83,97.06s-9.59,10.44,13.52,22.92c0,0-15.57-14.47-13.22-19.23,.14-.28,.44-.74,.34-.84-1.24-1.17-.64-2.85-.64-2.85Z"/>
      </g>
      <path class="cls-14" d="M159.12,38.9s3.3,.46,2.77-2.16c-.18-.91-.62-1.08-.62-1.08,0,0,.79,2.03-.68,2.14,0,0,.5-1.5-.05-2.21,0,0-.03,1.74-.62,1.92,0,0,.54-1.85-1.56-2.64,0,0,1.41,.84,.64,1.96,0,0-.66-2.23-3.01-1.84,0,0,2.76,.76,2.89,3.29,.03,.55,.25,.63,.25,.63Z"/>
      <path class="cls-14" d="M158.69,41.3s2.65,2.2,1.45,3.43c0,0-.54-1.52-1.34-1.97,0,0-.85,.16-.98,1.12s-.78,3.39-2.5,5.27c0,0,.2-.81-.18-1.45,0,0-1.09,4.94-2.41,6.48,0,0,.81-3.44,.19-4.71s5.26-8.67,5.78-8.18Z"/>
      <g>
        <polyline class="cls-14" points="370.93 145.97 402.35 110.46 405.01 104.07 398.1 106.23 368.2 145.17"/>
        <polyline class="cls-14" points="368.16 144.82 396.95 107.61 400.79 104.22 395.17 105.24 365.66 144.22"/>
        <polyline class="cls-14" points="372.84 143.34 405.19 107.45 410.87 105.46 409.17 111.23 374.3 144.73"/>
        <polyline class="cls-14" points="374.49 144.1 409.41 111.89 415.71 109.04 413.77 116.01 375.77 147.11"/>
        <polyline class="cls-14" points="376.87 145.88 413.7 116.17 417.03 112.27 416.11 117.9 377.65 148.1"/>
        <g>
          <polygon class="cls-67" points="356.46 134.85 377.25 146.85 399.03 134.27 376.27 123.42 356.46 134.85"/>
          <polygon class="cls-59" points="377.25 146.85 377.35 156.94 403.6 141.78 399.03 134.27 377.25 146.85"/>
          <polygon class="cls-33" points="350.83 141.85 356.46 134.85 377.25 146.85 377.35 156.94 350.83 141.85"/>
          <g>
            <polygon class="cls-21" points="372.25 143.76 379.82 148.13 401.6 135.56 395.94 132.86 372.25 143.76"/>
            <polygon class="cls-21" points="367.82 138.83 366.82 137.21 382.92 126.64 378.85 124.7 359.03 136.13 368.01 141.32 367.64 138.93 367.82 138.83"/>
            <polygon class="cls-21" points="392.33 131.13 369.17 141.98 369.67 142.27 392.7 131.31 392.33 131.13"/>
            <polygon class="cls-43" points="370.33 135.06 386.84 128.51 382.92 126.64 369.33 133.43 370.33 135.06"/>
            <polygon class="cls-43" points="386.84 128.51 370.74 136.42 370.15 135.16 370.52 137.54 371.68 138.21 392.33 131.13 386.84 128.51"/>
            <polygon class="cls-43" points="392.7 131.31 374.7 137.46 377.28 138.95 395.94 132.86 392.7 131.31"/>
          </g>
          <polyline class="cls-38" points="376.07 130.81 374.65 78.43 377.63 72.62 380.61 78.43 378.26 130.81"/>
          <path class="cls-45" d="M388.5,134.85c0-1.74-5.91-3.74-10.73-3.74s-10.33,2.35-10.33,4.09,5.27,4.43,10.09,4.43,10.97-3.03,10.97-4.77Z"/>
          <polyline class="cls-38" points="378.5 131.1 381.39 79.68 384.15 72.7 387.9 79.6 381.77 132.49"/>
          <polyline class="cls-38" points="376.2 131.33 373.86 79.96 371.1 72.98 367.35 79.88 373.48 132.77"/>
          <polyline class="cls-38" points="383.2 132.32 388.78 81.31 388.34 75.76 391.95 80.8 385.5 133.43"/>
          <polyline class="cls-3" points="375.86 139.68 373.99 85.88 377.74 78.98 381.49 85.88 379.04 139.68"/>
          <polyline class="cls-3" points="379.81 139.56 382.45 86.63 385.24 78.98 388.99 85.88 382.87 138.77"/>
          <polyline class="cls-38" points="386.54 133.58 392.48 83.84 389.58 78.98 394.23 82.07 387.89 134.48"/>
          <polyline class="cls-3" points="383.91 138.51 389.92 84.89 389.49 79.35 393.09 84.38 386.64 137.02"/>
          <polyline class="cls-3" points="387.35 136.42 393.59 84.21 390.69 79.35 395.33 82.44 388.99 134.85"/>
          <polyline class="cls-34" points="377.35 138.95 377.34 88.61 374.7 85.87 377.74 80.21 380.85 85.96 378.33 88.63 377.73 138.95"/>
          <polyline class="cls-34" points="381.38 138.61 385.34 89.07 383.23 87.6 385.3 80.09 388.62 86.65 386.86 88.7 381.69 138.51"/>
          <polyline class="cls-34" points="385.5 137.1 391.55 86.21 390.41 84.81 390.03 80.57 392.88 84.51 392.75 85.23 385.85 136.85"/>
          <polyline class="cls-34" points="388.62 135.2 394.82 84.15 394.12 83.78 392.08 80.28 395.33 82.44 395.17 83.78 388.99 134.85"/>
          <polyline class="cls-38" points="372.05 131.82 366.36 81.12 366.8 75.57 363.19 80.61 369.64 133.24"/>
          <polyline class="cls-3" points="375.33 139.56 372.68 86.44 369.89 78.79 366.14 85.69 372.27 138.77"/>
          <polyline class="cls-38" points="369.33 134.33 362.66 83.65 365.55 78.79 360.91 81.88 367.5 135.61"/>
          <polyline class="cls-3" points="371.14 138.41 365.21 84.71 365.65 79.16 362.04 84.2 368.41 136.91"/>
          <polyline class="cls-3" points="367.78 136.23 361.55 84.02 364.45 79.16 359.81 82.25 366.14 134.66"/>
          <polyline class="cls-34" points="373.76 138.42 369.79 88.88 371.91 87.41 369.83 79.9 366.51 86.47 368.28 88.51 373.45 138.33"/>
          <polyline class="cls-34" points="369.63 136.91 363.58 86.02 364.73 84.62 365.1 80.38 362.26 84.32 362.38 85.04 369.29 136.66"/>
          <polyline class="cls-34" points="366.51 135.01 360.32 83.96 361.02 83.59 363.06 80.09 359.81 82.25 359.97 83.59 366.14 134.66"/>
        </g>
      </g>
      <path class="cls-14" d="M459.28,154.58l2.23,1.38s.31,.65-1,.06c0,0,1.04,1.08,1.98,.88s3.64-4.63,5.86-6.25,8.25-5.79,10.28-11.36c.71-1.96,1.17-3.75,3.83-4.85s5.22-1.14,6.21-2.03c.99-.88,2.01-2.18,2.01-4.34s1.65-3.36,3.95-4.76c2.3-1.4,1.5-3.4,1.5-3.4,0,0-1.31,3.91-6.13,4.03-.87,.02-1.76,3.63-1.74,4.8s-4.46,3.45-8.67,4.12c-1.48,.24-2.86,2.91-2.86,2.91l-14.86,11.45-4.07,5.61,1.48,1.76Z"/>
      <polyline class="cls-15" points="428.92 127.42 408.96 132.82 399.72 130.92 403.95 135.89 406.93 141.5 413.43 144.03 417.27 145.93 415.07 149.46 415.7 156.88 424.47 157.33 424.94 161.94 427.14 166.38"/>
      <path class="cls-14" d="M468.41,139.79s-4.03,.98-4.36,.39-1.27-4.57-1.27-4.57c0,0,1.48-.92,1.64-.82s7.98-4.54,13.86-15.73c1.68-3.19,5.15-10.16,8.08-9.89,0,0-2.28,1.27-3.45,4.87-1.17,3.61,.49,2.91-1.15,6.01-1.64,3.11-9.3,14.49-13.35,19.73Z"/>
      <path class="cls-14" d="M475.58,130.52s1.38-2.05,1.49-2.72,.35-2.61,.35-2.61l.42,.52,.08-1.08,.77,.45,.06-.48s1.29,.68,.49,2.46-1.58,6.82-2.88,7.8l-.77-4.34Z"/>
      <path class="cls-14" d="M475.47,115.3s3.31,.48,1.53,2.99c-1.77,2.51-.67,6.5-.67,6.5,0,0-1.47,2.68-.61,5.14l1.24,1.36-.23,.79,.24,.33-.06,1.11,.06,1.11-.41,.67,.44,1.09-.67,.37,.4,1.03-.52,.85-.09,.93-.54,.45-.18,.71-.52,.42-.18,.71-.54,.15v.74s-1.06,.62-1.06,.62l-.15,.91-1.17,.39-.57,1.28-1.05-.65-.14,1.36-.86-.53-.27,.98-.73-.04-.62,.73-.97,.18-1.08,.3-1.31,.08-2.48-.19-.82-.66-.45,.24-1.1-.68-.42,.37-1.1-.68-.46-.28-.93-.84s-.25,.11-.36,.04l-.7-.43-.33-.61-.34-.06-.33-.61-.35-.1-.24-.82-.49,.07-.24-1-.55-.19s-.33-1.03-.46-1.53-1.16-2.22,.41-5.61c1.21-2.61,3.31-5.2,7.94-6.1l-.69,2.93s-2.22,.72-3.15,2.08c-2.22,3.23-1.71,5.03-1.71,5.03,0,0,.67,3.06,4.8,3.19s8.69-4.19,8.69-4.19c0,0,2.25-3.15,1.83-5.94-.31-2.07-.81-9-.8-10.05,0-.37,.58-1.83,.58-1.83,0,0,1.42,4.73,1.77,4.55,.5-.26,.59-1.16,.99-1.91,1.54-2.86,3.08-5.7,3.08-5.7,0,0,.22-.74-.31-1.55Z"/>
      <polygon class="cls-67" points="439.58 141.55 458.74 152.61 478.81 141.02 457.84 131.01 439.58 141.55"/>
      <g>
        <path class="cls-21" d="M504.74,118.87s-1.96,3.21-6.28,2.35c-.78-.16-2.3,2.88-2.52,3.92-.22,1.04-4.67,2.17-8.56,1.91-1.37-.09-3.14,2.01-3.14,2.01l-15.5,7.16,7.22,3.44c2.87-1.32,7.02-3.6,9.27-7.08,1.03-1.6,1.8-3.1,4.39-3.54,2.6-.44,4.88,.04,5.94-.55,1.06-.59,2.24-1.54,2.67-3.46s2.15-2.66,4.49-3.44c2.33-.78,2.02-2.73,2.02-2.73Z"/>
        <path class="cls-59" d="M468.69,136.26l-4.76,4.18,.96,1.87,1.71,1.68s.15,.64-.9-.15c0,0,.71,1.17,1.58,1.19s4.18-3.39,6.49-4.38c.54-.23,1.31-.55,2.19-.96l-7.22-3.44-.06,.03Z"/>
      </g>
      <path class="cls-63" d="M466.11,142.4h2.62s.61,.39-.82,.57c0,0,1.45,.37,2.15-.29s.67-5.86,1.71-8.4,3.98-9.26,2.78-15.07c-.42-2.04-.98-3.8,.71-6.14,1.69-2.34,3.84-3.71,4.22-4.98,.38-1.27,.57-2.91-.57-4.75s-.36-3.73,.86-6.13-.51-3.68-.51-3.68c0,0,.93,4.01-3.1,6.65-.73,.48,.41,4.01,1.04,4.99s-1.98,5.27-5.21,8.06c-1.14,.98-.91,3.98-.91,3.98l-6.63,17.54-.51,6.91,2.18,.72Z"/>
      <polygon class="cls-59" points="458.74 152.61 458.83 161.9 483.03 147.93 478.81 141.02 458.74 152.61"/>
      <polygon class="cls-33" points="434.4 148 439.58 141.55 458.74 152.61 458.83 161.9 434.4 148"/>
      <path class="cls-65" d="M449.95,109.41s-.21,.4-1.82,2c-1.13,1.12-4.9-.04-4.9-.04,0,0,6.83,3.75,7.81,.81"/>
      <path class="cls-2" d="M448.25,97.22s-1.17-4.58,.69-7.27c0,0-.35,3.7,.92,5.88"/>
      <path class="cls-37" d="M456.59,97.81s.57,2.14,3.99,.39c0,0-.22-.04-1.09-.62-.62-.42,1.12-1.67,.99-2.23"/>
      <path class="cls-70" d="M455,88.21s2.1-3.12,2.23-5.33l.13-2.21s-.99,4.25-4,5.81c-1.53,.79,.91,3.79,.91,3.79"/>
      <path class="cls-30" d="M466.11,125.03s-2.91,2.95-3.51,2.62-3.48-3.22-3.48-3.22c0,0,.77-1.56,.96-1.56s4.41-8.06,3.53-20.66c-.25-3.6-.95-11.35,1.68-12.65,0,0-1.28,2.28-.38,5.96s1.94,2.21,2.18,5.72-.3,17.21-1,23.8Z"/>
      <path class="cls-36" d="M453.35,137.27s2.32-3.45,2.18-5.16,.31-7.39-2.7-13.75c-1.71-3.6-1.14-7.86-1.14-7.86l5.64,1.16s2.83,10.16,4.88,11.91,2.28,12.99,2.37,14.17,1.8,6.4,3.32,7.25c0,0-1.66,1-2.89,.52s-.76,.33-.76,.33c0,0-2.65-.24-3.32,0s0,.28,0,.28c0,0-1.85,.16-2.31-.46-.63-.86-1.77,.03-1.77,.03,0,0-4.31-3.7-4.6-5.02s1.08-3.41,1.08-3.41Z"/>
      <path class="cls-7" d="M467.34,113.37s.09-2.46-.16-3.1-1.07-2.4-1.07-2.4l.62,.22-.5-.96,.89-.02-.2-.44s1.45-.09,1.71,1.83,2.24,6.64,1.64,8.15l-2.94-3.29Z"/>
      <path class="cls-7" d="M458.34,101.28s3.06-1.33,2.88,1.74c-.19,3.06,3.75,5.08,3.75,5.08,0,0,.16,3.06,2.18,4.7l1.77,.51-.03,.68,.63,.26,.14,1.04,.86,.54,.17,1.1,.66,.48-.09,.88,.88,.66-.28,.94,.69,.9-.49,.69,.49,.67-.39,.62,.39,.71-.38,.41,.46,1.05-.72,1.06,.48,1.18-1.06,.36,.45,.94-1.28,.29,.72,.94-1.13,.29,.7,.76-1.06,.57-.15,.95-.84,.95-.65,.54-1.07,.76-2.21,1.14-1.04-.13-.18,.68-1.25-.31-.72,.71-.89-.32-.65,.41-.63-.42-.62,.42-.65-.47-.69,.38-.33-.58-.75,.34-.18-.59-.76,.32-.31-.9-.93,.4-.43-.79s-.89-.32-1.26-.68-2.16-1.28-2.6-4.99c-.34-2.86,.09-6.16,3.55-9.36l.95,2.85s-1.51,1.78-1.59,3.43c-.19,3.92,1.18,5.18,1.18,5.18,0,0,2.18,2.25,5.76,.19s5.19-8.13,5.19-8.13c0,0,.26-3.86-1.56-6.02-1.36-1.6-5.41-7.23-5.96-8.13-.19-.31-.47-1.86-.47-1.86,0,0,3.69,3.28,3.89,2.94,.29-.49-.6-1.27-.65-2.11-.19-3.25-.79-5.7-.79-5.7,0,0-.21-.74-1.07-1.15Z"/>
      <path class="cls-7" d="M463.26,131.6s-.82-5.12-4.46-6.04c0,0,.57-2.69-.92-3.6,0,0,.38,1.07,.28,1.42,0,0-.54-.7-.92-.54,0,0,.28,.54,.44,.92,0,0-.92-.38-1.14-.44s.03,.35,.51,.82-.03,2.12-.03,2.12c0,0,1.52,2.88,2.65,2.84,0,0-.11,2.62,.18,3.32"/>
      <path class="cls-7" d="M464.97,123.32s-4.11-.81-5.21-4.32c-.63-2.03-.41-2-.41-2h2.5s.36,2.81,3.21,2.12"/>
      <path class="cls-29" d="M455.73,121.02s.47,1.09-.14,5.45-8.63,7.54-6.41,10.57,1.67,1.33,1.72,4.12-2.04,4.12-2.04,4.12c0,0-.76,.43,1.54,.62s.31,.47,.31,.47c0,0,3.83,.54,5.02,0,.52-.24-.43-.24-.43-.24l2.19-.14s-2.23-1.18-2.66-2.94-.09-4.27-.57-4.93-2.61-2.09-2.04-3.51c0,0,5.13-6.46,5.27-7.59"/>
      <path class="cls-76" d="M463.28,115.42s2.06,2.84,.83,3.41-5.88-1.61-5.88-1.61c0,0,4.78,3.5,.45,1.95-2.75-.98-10.73-8.88-11.87-11.21-.78-1.6-2.37-6.47,1.23-12.39,3.6-5.92,15.02-6.97,15.02-6.97,0,0,6.06-.57,6.65-3.37,0,0-1.96-1.47-2.96-6.21-.47-2.24-.25-4.42-.25-4.42,0,0,.44-4.74,1.26-4.3s1.14,5.36,2.59,7.1,2.02,3.95,2.02,3.95l3.5,.08s3.55-1.04,3.86-1.54-.76,5.02-6.97,5.83c0,0,.12,3.96-5.81,6.47-5.92,2.51-12.83,7.11-13.63,8.48,0,0,.18,1.91,4.35,7.35,4.55,5.94,5.58,7.39,5.58,7.39Z"/>
      <path class="cls-29" d="M454.26,102.89c-2.7-4.28,0-13.19,0-13.19l-.41-2.84c.06,.95,2.34,1.48,2.31,3.72-.03,2.24,.03,6.92,.6,8.69s-.16,7.26-.16,7.26c0,0-1.47-2.28-2.33-3.65Z"/>
      <ellipse class="cls-63" cx="460.78" cy="114.76" rx=".29" ry=".47" transform="translate(27.79 309.72) rotate(-38.23)"/>
      <ellipse class="cls-60" cx="462.97" cy="109.16" rx=".31" ry=".47" transform="translate(17.56 276.11) rotate(-33.81)"/>
      <path class="cls-51" d="M460.44,119.17s-2.54-1.8-2.2-1.95,3.62,1.39,3.62,1.39c0,0-1.51-.06-1.42,.55Z"/>
      <polyline class="cls-15" points="416.47 222.55 407.99 222.79 409.95 228.1 403.98 229.3 397.33 240.15 403.45 241.82 397.11 248.21 405.57 249.53 413.47 252.35 413.41 260.08"/>
      <path class="cls-22" d="M117.35,19.19l3.22-15.73h34.13"/>
      <path class="cls-22" d="M284.94,81.11V16.73h17.96"/>
      <path class="cls-22" d="M366.52,219.7h-70.28v40.79"/>
      <path class="cls-22" d="M470.22,244.76h-60.94v66.84"/>
      <path class="cls-22" d="M443.19,185.79v-56.52h11.79"/>
      <path class="cls-74" d="M156.84,0V1.35h-1.83V6.9h-1.68V1.35h-1.83V0h5.34Zm2.79,0V4.13c0,.41,.1,.73,.3,.95,.2,.22,.5,.33,.89,.33s.69-.11,.9-.33c.21-.22,.31-.54,.31-.95V0h1.68V4.12c0,.62-.13,1.14-.39,1.56-.26,.43-.62,.75-1.06,.96-.44,.22-.93,.32-1.47,.32s-1.03-.1-1.46-.31c-.43-.22-.76-.54-1.01-.96-.25-.43-.37-.96-.37-1.57V0h1.68Zm9.75,3.36c.4,.09,.72,.29,.96,.6,.24,.31,.36,.66,.36,1.06,0,.58-.2,1.04-.61,1.38-.4,.33-.96,.5-1.68,.5h-3.21V0h3.11c.7,0,1.25,.16,1.64,.48,.4,.32,.6,.76,.6,1.31,0,.41-.11,.74-.32,1.01-.21,.27-.49,.46-.85,.56Zm-2.5-.57h1.1c.28,0,.49-.06,.63-.18,.15-.12,.23-.3,.23-.54s-.08-.42-.23-.54c-.14-.12-.35-.19-.63-.19h-1.1v1.44Zm1.24,2.75c.28,0,.5-.06,.65-.19,.16-.13,.24-.32,.24-.56s-.08-.43-.25-.57c-.16-.14-.38-.21-.66-.21h-1.22v1.52h1.24Zm8.15,.14h-2.58l-.41,1.22h-1.76l2.5-6.9h1.95l2.5,6.9h-1.78l-.41-1.22Zm-.43-1.3l-.86-2.53-.85,2.53h1.7Zm9.85,2.52h-1.68l-2.81-4.26V6.9h-1.68V0h1.68l2.81,4.28V0h1.68V6.9Z"/>
      <path class="cls-74" d="M303.23,18.87h2.2v1.3h-3.88v-6.9h1.68v5.6Zm7.59,.08h-2.58l-.41,1.22h-1.76l2.5-6.9h1.95l2.5,6.9h-1.78l-.41-1.22Zm-.43-1.3l-.86-2.53-.85,2.53h1.7Zm11.49-4.38v6.9h-1.68v-4.14l-1.54,4.14h-1.36l-1.55-4.15v4.15h-1.68v-6.9h1.99l1.94,4.78,1.92-4.78h1.98Zm4.77,6.97c-.65,0-1.25-.15-1.79-.45-.54-.3-.97-.72-1.29-1.26-.31-.54-.47-1.15-.47-1.83s.16-1.28,.47-1.82c.32-.54,.75-.96,1.29-1.26,.54-.3,1.14-.45,1.79-.45s1.24,.15,1.78,.45c.54,.3,.97,.72,1.28,1.26,.31,.54,.47,1.14,.47,1.82s-.16,1.28-.47,1.83c-.31,.54-.74,.96-1.28,1.26-.54,.3-1.13,.45-1.78,.45Zm0-1.53c.55,0,.99-.18,1.32-.55,.33-.37,.5-.85,.5-1.45s-.17-1.09-.5-1.45c-.33-.37-.77-.55-1.32-.55s-1,.18-1.34,.54c-.33,.36-.49,.85-.49,1.46s.16,1.1,.49,1.46c.33,.36,.78,.54,1.34,.54Zm10.93,1.46h-1.68l-2.81-4.26v4.26h-1.68v-6.9h1.68l2.81,4.28v-4.28h1.68v6.9Zm6.09-4.72c-.12-.23-.3-.4-.54-.52-.23-.12-.5-.19-.82-.19-.54,0-.98,.18-1.31,.54-.33,.35-.49,.83-.49,1.43,0,.64,.17,1.13,.51,1.49,.35,.35,.82,.53,1.43,.53,.41,0,.76-.1,1.04-.31,.29-.21,.5-.51,.63-.9h-2.13v-1.24h3.66v1.56c-.12,.42-.34,.81-.64,1.17-.29,.36-.67,.65-1.13,.87-.46,.22-.98,.33-1.55,.33-.68,0-1.29-.15-1.83-.44-.53-.3-.95-.72-1.25-1.25-.29-.53-.44-1.14-.44-1.82s.15-1.29,.44-1.82c.3-.54,.72-.95,1.25-1.25,.53-.3,1.14-.45,1.82-.45,.83,0,1.52,.2,2.08,.6,.57,.4,.95,.95,1.13,1.66h-1.86Zm7.5,3.5h-2.58l-.41,1.22h-1.76l2.5-6.9h1.95l2.5,6.9h-1.78l-.41-1.22Zm-.43-1.3l-.86-2.53-.85,2.53h1.7Zm9.85,2.52h-1.68l-2.81-4.26v4.26h-1.68v-6.9h1.68l2.81,4.28v-4.28h1.68v6.9Z"/>
      <path class="cls-74" d="M392.15,310.11v6.9h-1.68v-4.14l-1.54,4.14h-1.36l-1.55-4.15v4.15h-1.68v-6.9h1.99l1.94,4.78,1.92-4.78h1.98Zm5.8,5.68h-2.58l-.41,1.22h-1.76l2.5-6.9h1.95l2.5,6.9h-1.78l-.41-1.22Zm-.43-1.3l-.86-2.53-.85,2.53h1.7Zm5.36,1.22h2.2v1.3h-3.88v-6.9h1.68v5.6Zm7.59,.08h-2.58l-.41,1.22h-1.76l2.5-6.9h1.95l2.5,6.9h-1.78l-.41-1.22Zm-.43-1.3l-.86-2.53-.85,2.53h1.7Zm9.85,2.52h-1.68l-2.81-4.26v4.26h-1.68v-6.9h1.68l2.81,4.28v-4.28h1.68v6.9Zm6.09-4.72c-.12-.23-.3-.4-.54-.52-.23-.12-.5-.19-.82-.19-.54,0-.98,.18-1.31,.54-.33,.35-.49,.83-.49,1.43,0,.64,.17,1.13,.51,1.49,.35,.35,.82,.53,1.43,.53,.41,0,.76-.1,1.04-.31,.29-.21,.5-.51,.63-.9h-2.13v-1.24h3.66v1.56c-.12,.42-.34,.81-.64,1.17-.29,.36-.67,.65-1.13,.87-.46,.22-.98,.33-1.55,.33-.68,0-1.29-.15-1.83-.44-.53-.3-.95-.72-1.25-1.25-.29-.53-.44-1.14-.44-1.82s.15-1.29,.44-1.82c.3-.54,.72-.95,1.25-1.25,.53-.3,1.14-.45,1.82-.45,.83,0,1.52,.2,2.08,.6,.57,.4,.95,.95,1.13,1.66h-1.86Z"/>
      <path class="cls-74" d="M271.74,259v6.9h-1.68v-4.14l-1.54,4.14h-1.36l-1.55-4.15v4.15h-1.68v-6.9h1.99l1.94,4.78,1.92-4.78h1.98Zm4.77,6.97c-.65,0-1.24-.15-1.79-.45-.54-.3-.97-.72-1.29-1.26-.31-.54-.47-1.15-.47-1.83s.16-1.28,.47-1.82c.32-.54,.75-.96,1.29-1.26,.54-.3,1.14-.45,1.79-.45s1.24,.15,1.78,.45c.54,.3,.97,.72,1.28,1.26,.31,.54,.47,1.14,.47,1.82s-.16,1.28-.47,1.83c-.31,.54-.74,.96-1.28,1.26-.54,.3-1.13,.45-1.78,.45Zm0-1.53c.55,0,.99-.18,1.32-.55,.33-.37,.5-.85,.5-1.45s-.17-1.09-.5-1.45c-.33-.37-.77-.55-1.32-.55s-1,.18-1.34,.54c-.33,.36-.49,.85-.49,1.46s.16,1.1,.49,1.46c.33,.36,.78,.54,1.34,.54Zm9.08-5.44v4.7c0,.73-.21,1.29-.62,1.68-.41,.39-.96,.59-1.65,.59s-1.31-.21-1.75-.62c-.44-.41-.66-1-.66-1.76h1.67c0,.29,.06,.51,.18,.66,.12,.14,.29,.22,.51,.22,.2,0,.36-.07,.47-.2,.11-.13,.17-.32,.17-.57v-4.7h1.68Zm4.92,6.97c-.65,0-1.25-.15-1.79-.45-.54-.3-.97-.72-1.29-1.26-.31-.54-.47-1.15-.47-1.83s.16-1.28,.47-1.82c.32-.54,.75-.96,1.29-1.26,.54-.3,1.14-.45,1.79-.45s1.24,.15,1.78,.45c.54,.3,.97,.72,1.28,1.26,.31,.54,.47,1.14,.47,1.82s-.16,1.28-.47,1.83c-.31,.54-.74,.96-1.28,1.26-.54,.3-1.13,.45-1.78,.45Zm0-1.53c.55,0,.99-.18,1.32-.55,.33-.37,.5-.85,.5-1.45s-.17-1.09-.5-1.45c-.33-.37-.77-.55-1.32-.55s-1,.18-1.34,.54c-.33,.36-.49,.85-.49,1.46s.16,1.1,.49,1.46c.33,.36,.78,.54,1.34,.54Zm8.76,1.46l-2.32-3.05v3.05h-1.68v-6.9h1.68v3.03l2.3-3.03h1.98l-2.67,3.38,2.77,3.52h-2.05Zm4.83-5.55v1.4h2.25v1.3h-2.25v1.51h2.55v1.35h-4.23v-6.9h4.23v1.35h-2.55Zm7.45,5.55l-1.44-2.6h-.4v2.6h-1.68v-6.9h2.82c.54,0,1.01,.09,1.39,.29,.39,.19,.67,.45,.86,.79,.19,.33,.29,.69,.29,1.1,0,.46-.13,.87-.39,1.23-.26,.36-.64,.62-1.14,.77l1.59,2.73h-1.9Zm-1.84-3.79h1.04c.31,0,.54-.08,.69-.23,.16-.15,.24-.36,.24-.64s-.08-.47-.24-.62c-.15-.15-.38-.23-.69-.23h-1.04v1.71Zm9.99-3.11v1.35h-1.83v5.55h-1.68v-5.55h-1.83v-1.35h5.34Zm4.4,6.97c-.65,0-1.24-.15-1.79-.45-.54-.3-.97-.72-1.29-1.26-.31-.54-.47-1.15-.47-1.83s.16-1.28,.47-1.82c.32-.54,.75-.96,1.29-1.26,.54-.3,1.14-.45,1.79-.45s1.24,.15,1.78,.45c.54,.3,.97,.72,1.28,1.26,.31,.54,.47,1.14,.47,1.82s-.16,1.28-.47,1.83c-.31,.54-.74,.96-1.28,1.26-.54,.3-1.13,.45-1.78,.45Zm0-1.53c.55,0,.99-.18,1.32-.55,.33-.37,.5-.85,.5-1.45s-.17-1.09-.5-1.45c-.33-.37-.77-.55-1.32-.55s-1,.18-1.34,.54c-.33,.36-.49,.85-.49,1.46s.16,1.1,.49,1.46c.33,.36,.78,.54,1.34,.54Z"/>
      <path class="cls-74" d="M431.55,191.26c-.5,0-.96-.08-1.36-.25-.4-.16-.72-.41-.96-.73-.24-.32-.36-.71-.37-1.16h1.79c.03,.26,.11,.45,.27,.59,.15,.13,.35,.2,.59,.2s.45-.06,.59-.17c.14-.12,.22-.28,.22-.48,0-.17-.06-.31-.18-.42-.11-.11-.25-.2-.42-.28-.16-.07-.4-.15-.71-.25-.45-.14-.81-.28-1.09-.41s-.52-.34-.73-.61c-.2-.27-.3-.62-.3-1.05,0-.64,.23-1.14,.7-1.5,.47-.37,1.07-.55,1.82-.55s1.37,.18,1.84,.55c.47,.36,.71,.86,.75,1.51h-1.82c-.01-.22-.09-.4-.25-.52-.15-.13-.34-.2-.58-.2-.2,0-.37,.06-.49,.17-.12,.1-.19,.26-.19,.46,0,.22,.1,.4,.31,.52s.54,.26,.98,.4c.45,.15,.81,.29,1.08,.43,.28,.14,.52,.34,.73,.6,.2,.26,.3,.6,.3,1.01s-.1,.75-.3,1.07c-.2,.32-.49,.58-.86,.77s-.83,.29-1.35,.29Zm5.5-6.97v4.13c0,.41,.1,.73,.3,.95,.2,.22,.5,.33,.89,.33s.69-.11,.9-.33c.21-.22,.31-.54,.31-.95v-4.13h1.68v4.12c0,.62-.13,1.14-.39,1.56-.26,.43-.62,.75-1.06,.96-.44,.22-.93,.32-1.47,.32s-1.03-.1-1.46-.31c-.43-.22-.76-.54-1.01-.96-.25-.43-.37-.96-.37-1.57v-4.12h1.68Zm9.09,6.9l-1.44-2.6h-.4v2.6h-1.68v-6.9h2.82c.54,0,1.01,.09,1.39,.29,.39,.19,.68,.45,.86,.79,.19,.33,.29,.69,.29,1.1,0,.46-.13,.87-.39,1.23-.26,.36-.64,.62-1.14,.77l1.59,2.73h-1.9Zm-1.84-3.79h1.04c.31,0,.54-.08,.69-.23,.16-.15,.24-.36,.24-.64s-.08-.47-.24-.62c-.15-.15-.38-.23-.69-.23h-1.04v1.71Zm9.32,2.58h-2.58l-.41,1.22h-1.76l2.5-6.9h1.95l2.5,6.9h-1.78l-.41-1.22Zm-.43-1.3l-.86-2.53-.85,2.53h1.7Zm7.86-1.02c.4,.09,.72,.29,.96,.6,.24,.31,.36,.66,.36,1.06,0,.58-.2,1.04-.61,1.38-.4,.33-.96,.5-1.68,.5h-3.21v-6.9h3.11c.7,0,1.25,.16,1.64,.48,.4,.32,.6,.76,.6,1.31,0,.41-.11,.74-.32,1.01-.21,.27-.49,.46-.85,.56Zm-2.5-.57h1.1c.28,0,.49-.06,.63-.18,.15-.12,.23-.3,.23-.54s-.08-.42-.23-.54c-.14-.12-.35-.19-.63-.19h-1.1v1.44Zm1.24,2.75c.28,0,.5-.06,.65-.19,.16-.13,.24-.32,.24-.56s-.08-.43-.25-.57c-.16-.14-.38-.21-.66-.21h-1.22v1.52h1.24Zm8.15,.14h-2.58l-.41,1.22h-1.76l2.5-6.9h1.95l2.5,6.9h-1.78l-.41-1.22Zm-.43-1.3l-.86-2.53-.85,2.53h1.7Zm9.6-4.38l-2.39,4.62v2.28h-1.68v-2.28l-2.39-4.62h1.91l1.34,2.89,1.33-2.89h1.89Zm5.27,5.68h-2.58l-.41,1.22h-1.76l2.5-6.9h1.95l2.5,6.9h-1.78l-.41-1.22Zm-.43-1.3l-.86-2.53-.85,2.53h1.7Z"/>
      <path class="cls-22" d="M394.04,82.09l15.71-16.71h72.26"/>
      <path class="cls-74" d="M484.75,66.07c-.12-.23-.3-.4-.54-.52-.23-.12-.5-.19-.82-.19-.54,0-.98,.18-1.31,.54-.33,.35-.49,.83-.49,1.43,0,.64,.17,1.13,.51,1.49,.35,.35,.82,.53,1.43,.53,.41,0,.76-.1,1.04-.31,.29-.21,.5-.51,.63-.9h-2.13v-1.24h3.66v1.56c-.12,.42-.34,.81-.64,1.17-.29,.36-.67,.65-1.13,.87-.46,.22-.98,.33-1.55,.33-.68,0-1.29-.15-1.83-.44-.53-.3-.95-.72-1.25-1.25-.29-.53-.44-1.14-.44-1.82s.15-1.29,.44-1.82c.3-.54,.72-.95,1.25-1.25,.53-.3,1.14-.45,1.82-.45,.83,0,1.52,.2,2.08,.6,.57,.4,.95,.95,1.13,1.66h-1.86Zm6.72,4.72l-1.44-2.6h-.4v2.6h-1.68v-6.9h2.82c.54,0,1.01,.09,1.39,.29,.39,.19,.68,.45,.86,.79,.19,.33,.29,.69,.29,1.1,0,.46-.13,.87-.39,1.23-.26,.36-.64,.62-1.14,.77l1.59,2.73h-1.9Zm-1.84-3.79h1.04c.31,0,.54-.08,.69-.23,.16-.15,.24-.36,.24-.64s-.08-.47-.24-.62c-.15-.15-.38-.23-.69-.23h-1.04v1.71Zm6.71-1.76v1.4h2.25v1.3h-2.25v1.51h2.55v1.35h-4.23v-6.9h4.23v1.35h-2.55Zm6.43,5.62c-.5,0-.96-.08-1.36-.25-.4-.16-.72-.41-.96-.73-.24-.32-.36-.71-.37-1.16h1.79c.03,.26,.11,.45,.27,.59,.15,.13,.35,.2,.59,.2s.45-.06,.59-.17c.14-.12,.22-.28,.22-.48,0-.17-.06-.31-.18-.42-.11-.11-.25-.2-.42-.28-.16-.07-.4-.15-.71-.25-.45-.14-.81-.28-1.09-.41-.28-.14-.52-.34-.73-.61-.2-.27-.3-.62-.3-1.05,0-.64,.23-1.14,.7-1.5,.46-.37,1.07-.55,1.82-.55s1.37,.18,1.84,.55c.46,.36,.71,.86,.75,1.51h-1.82c-.01-.22-.1-.4-.25-.52-.15-.13-.34-.2-.58-.2-.2,0-.37,.06-.49,.17-.12,.1-.19,.26-.19,.46,0,.22,.1,.4,.31,.52,.21,.12,.54,.26,.98,.4,.45,.15,.81,.29,1.08,.43,.28,.14,.52,.34,.73,.6,.2,.26,.3,.6,.3,1.01s-.1,.75-.3,1.07c-.2,.32-.49,.58-.86,.77-.38,.19-.83,.29-1.35,.29Zm5.53-6.97v6.9h-1.68v-6.9h1.68Zm5.51,6.9l-2.32-3.05v3.05h-1.68v-6.9h1.68v3.03l2.3-3.03h1.98l-2.67,3.38,2.77,3.52h-2.05Z"/>
      <path class="cls-64" d="M120.3,98.31h13.02c2.85,0,5.16,2.31,5.16,5.16h0c0,2.85-2.31,5.16-5.16,5.16h-13.02v-10.32Z"/>
      <ellipse class="cls-39" cx="119.86" cy="103.47" rx="5.09" ry="5.16"/>
      <rect class="cls-21" x="116.86" y="100.03" width="7.21" height="6.67"/>
      <path class="cls-8" d="M128.43,101.54v-1.56h2.72v7.18h-1.75v-5.61h-.97Z"/>
      <path class="cls-64" d="M373.89,143.03h13.02c2.85,0,5.16,2.31,5.16,5.16h0c0,2.85-2.31,5.16-5.16,5.16h-13.02v-10.32Z"/>
      <ellipse class="cls-39" cx="374.07" cy="148.19" rx="5.09" ry="5.16"/>
      <path class="cls-8" d="M382.26,146.73c.03-.7,.26-1.24,.69-1.62s1.02-.57,1.76-.57c.49,0,.91,.09,1.26,.26,.35,.17,.62,.4,.8,.7,.18,.29,.28,.63,.28,.99,0,.43-.11,.79-.32,1.06-.22,.27-.47,.45-.76,.55v.04c.37,.12,.67,.33,.88,.62,.22,.29,.32,.66,.32,1.11,0,.41-.09,.77-.29,1.08-.18,.31-.46,.55-.82,.73-.35,.18-.78,.27-1.27,.27-.79,0-1.42-.19-1.89-.58-.47-.39-.71-.97-.74-1.75h1.63c0,.29,.09,.52,.25,.69,.16,.16,.39,.25,.69,.25,.26,0,.45-.07,.59-.22,.14-.15,.22-.35,.22-.59,0-.31-.1-.54-.3-.68-.2-.14-.51-.22-.95-.22h-.31v-1.37h.31c.33,0,.6-.06,.81-.17,.21-.12,.31-.32,.31-.62,0-.24-.07-.42-.2-.55-.13-.13-.31-.2-.54-.2-.25,0-.44,.08-.56,.23-.12,.15-.19,.34-.21,.56h-1.64Z"/>
      <rect class="cls-21" x="370.45" y="144.51" width="7.37" height="7.37"/>
      <path class="cls-64" d="M299.68,138.12h13.02c2.85,0,5.16,2.31,5.16,5.16h0c0,2.85-2.31,5.16-5.16,5.16h-13.02v-10.32Z"/>
      <ellipse class="cls-39" cx="299.86" cy="143.28" rx="5.09" ry="5.16"/>
      <rect class="cls-21" x="296.24" y="139.84" width="7.21" height="6.67"/>
      <path class="cls-8" d="M307.81,141.35v-1.56h2.72v7.18h-1.75v-5.61h-.97Z"/>
      <path class="cls-64" d="M272.16,138.12h13.02c2.85,0,5.16,2.31,5.16,5.16h0c0,2.85-2.31,5.16-5.16,5.16h-13.02v-10.32Z"/>
      <ellipse class="cls-39" cx="272.34" cy="143.28" rx="5.09" ry="5.16"/>
      <path class="cls-8" d="M280.29,141.35v-1.56h2.72v7.18h-1.75v-5.61h-.97Z"/>
      <rect class="cls-21" x="268.72" y="140.58" width="7.37" height="5.9"/>
      <path class="cls-64" d="M346.37,143.03h13.02c2.85,0,5.16,2.31,5.16,5.16h0c0,2.85-2.31,5.16-5.16,5.16h-13.02v-10.32Z"/>
      <ellipse class="cls-39" cx="346.54" cy="148.19" rx="5.09" ry="5.16"/>
      <path class="cls-8" d="M354.5,146.27v-1.56h2.72v7.18h-1.75v-5.61h-.97Z"/>
      <rect class="cls-21" x="342.93" y="145.49" width="7.37" height="5.9"/>
      <path class="cls-64" d="M401.41,143.03h13.02c2.85,0,5.16,2.31,5.16,5.16h0c0,2.85-2.31,5.16-5.16,5.16h-13.02v-10.32Z"/>
      <ellipse class="cls-39" cx="401.59" cy="148.19" rx="5.09" ry="5.16"/>
      <rect class="cls-21" x="397.97" y="144.75" width="7.21" height="6.67"/>
      <path class="cls-8" d="M409.78,146.73c.03-.7,.26-1.24,.69-1.62s1.02-.57,1.76-.57c.49,0,.91,.09,1.26,.26,.35,.17,.62,.4,.8,.7,.18,.29,.28,.63,.28,.99,0,.43-.11,.79-.32,1.06-.22,.27-.47,.45-.76,.55v.04c.37,.12,.67,.33,.88,.62,.22,.29,.32,.66,.32,1.11,0,.41-.09,.77-.29,1.08-.18,.31-.46,.55-.82,.73-.35,.18-.78,.27-1.27,.27-.79,0-1.42-.19-1.89-.58-.47-.39-.71-.97-.74-1.75h1.63c0,.29,.09,.52,.25,.69,.16,.16,.39,.25,.69,.25,.26,0,.45-.07,.59-.22,.14-.15,.22-.35,.22-.59,0-.31-.1-.54-.3-.68-.2-.14-.51-.22-.95-.22h-.31v-1.37h.31c.33,0,.6-.06,.81-.17,.21-.12,.31-.32,.31-.62,0-.24-.07-.42-.2-.55-.13-.13-.31-.2-.54-.2-.25,0-.44,.08-.56,.23-.12,.15-.19,.34-.21,.56h-1.64Z"/>
      <path class="cls-64" d="M475.13,151.39h13.02c2.85,0,5.16,2.31,5.16,5.16h0c0,2.85-2.31,5.16-5.16,5.16h-13.02v-10.32Z"/>
      <ellipse class="cls-39" cx="475.22" cy="156.55" rx="5.09" ry="5.16"/>
      <rect class="cls-21" x="471.69" y="153.06" width="7.21" height="6.67"/>
      <path class="cls-8" d="M483.26,154.62v-1.56h2.72v7.18h-1.75v-5.61h-.97Z"/>
      <path class="cls-64" d="M374.88,245.75h13.02c2.85,0,5.16,2.31,5.16,5.16h0c0,2.85-2.31,5.16-5.16,5.16h-13.02v-10.32Z"/>
      <ellipse class="cls-39" cx="375.05" cy="250.89" rx="5.09" ry="5.16"/>
      <rect class="cls-21" x="371.44" y="247.47" width="7.21" height="6.67"/>
      <path class="cls-8" d="M383,248.98v-1.56h2.72v7.18h-1.75v-5.61h-.97Z"/>
      <path class="cls-64" d="M480.05,270.32h13.02c2.85,0,5.16,2.31,5.16,5.16h0c0,2.85-2.31,5.16-5.16,5.16h-13.02v-10.32Z"/>
      <ellipse class="cls-39" cx="480.22" cy="275.48" rx="5.09" ry="5.16"/>
      <rect class="cls-21" x="476.61" y="272.04" width="7.21" height="6.67"/>
      <path class="cls-8" d="M488.18,273.55v-1.56h2.72v7.18h-1.75v-5.61h-.97Z"/>
      <g>
        <path class="cls-27" d="M399.48,144.47h4.28c.21,0,.4,.12,.48,.32l.26,1.04c.07,.15-.04,.32-.21,.32h-5.39c-.17,0-.28-.18-.21-.33l.32-1.04c.09-.18,.27-.3,.47-.3Z"/>
        <path class="cls-20" d="M398.84,146.14h1.38v.35c0,.38-.31,.69-.69,.69h0c-.38,0-.69-.31-.69-.69v-.35h0Z"/>
        <path class="cls-20" d="M400.22,146.14h1.38v.35c0,.38-.31,.69-.69,.69h0c-.38,0-.69-.31-.69-.69v-.35h0Z"/>
        <path class="cls-20" d="M401.6,146.14h1.38v.35c0,.38-.31,.69-.69,.69h0c-.38,0-.69-.31-.69-.69v-.35h0Z"/>
        <path class="cls-20" d="M402.98,146.14h1.38v.35c0,.38-.31,.69-.69,.69h0c-.38,0-.69-.31-.69-.69v-.35h0Z"/>
        <rect class="cls-17" x="399.1" y="147.18" width=".77" height="1.49"/>
        <rect class="cls-19" x="403.31" y="147.18" width=".81" height="1.49"/>
        <rect class="cls-18" x="398.67" y="148.67" width="5.85" height="3.03" rx=".4" ry=".4"/>
      </g>
      <g>
        <path class="cls-23" d="M374.54,147.53c.2-.09,.29-.32,.27-.53l-.26-2.1h-.74l-.19,2.12c-.02,.21,.07,.42,.26,.51,.23,.11,.43,.11,.66,0Z"/>
        <path class="cls-23" d="M372.5,147.57c.22,.08,.41,.06,.65-.06,.16-.08,.25-.25,.26-.43l.15-2.18h-.68l-.63,2.06c-.07,.24,0,.53,.25,.61Z"/>
        <path class="cls-23" d="M372.12,146.68l.41-1.79h-.5c-.12,0-.23,.07-.28,.18l-.84,1.81c-.12,.26-.05,.59,.23,.67,.08,.02,.15,.03,.23,.03,.43-.02,.66-.49,.76-.9Z"/>
        <path class="cls-23" d="M375.24,147.51c.24,.12,.43,.14,.65,.06,.24-.09,.32-.37,.25-.61l-.63-2.06h-.68l.15,2.18c.01,.18,.1,.35,.26,.43Z"/>
        <path class="cls-23" d="M377.47,146.89l-.84-1.81c-.05-.11-.16-.18-.28-.18h-.5l.41,1.79c.1,.42,.33,.88,.76,.9,.08,0,.15,0,.23-.03,.27-.08,.34-.41,.23-.67Z"/>
        <path class="cls-23" d="M376.37,147.76c-.05,.13-.15,.23-.29,.27-.29,.08-.55,.06-.88-.07-.1-.04-.18-.12-.24-.21-.06,.11-.15,.2-.27,.24-.34,.11-.61,.11-.93,0-.12-.04-.22-.14-.27-.25h-.02c-.05,.1-.14,.18-.24,.22-.31,.13-.56,.15-.85,.07-.14-.04-.23-.14-.28-.26-.04,.06-.1,.11-.16,.14-.21,.11-.39,.15-.58,.13v3.06c0,.12,.1,.22,.22,.22h.49v-2.31c0-.1,.08-.18,.18-.18h1.57c.1,0,.18,.08,.18,.18v2.31h2.84c.12,0,.22-.1,.22-.22v-3.02c-.16,0-.31-.04-.49-.14-.08-.04-.14-.1-.19-.18Zm.1,1.98c0,.09-.07,.15-.15,.15h-1.39c-.09,0-.15-.07-.15-.15v-.71c0-.09,.07-.15,.15-.15h1.39c.09,0,.15,.07,.15,.15v.71Z"/>
      </g>
      <g>
        <path class="cls-23" d="M475.57,156.03c.2-.09,.29-.32,.27-.53l-.26-2.1h-.74l-.19,2.12c-.02,.21,.07,.42,.26,.51,.23,.11,.43,.11,.66,0Z"/>
        <path class="cls-23" d="M473.52,156.06c.22,.08,.41,.06,.65-.06,.16-.08,.25-.25,.26-.43l.15-2.18h-.68l-.63,2.06c-.07,.24,0,.53,.25,.61Z"/>
        <path class="cls-23" d="M473.15,155.18l.41-1.79h-.5c-.12,0-.23,.07-.28,.18l-.84,1.81c-.12,.26-.05,.59,.23,.67,.08,.02,.15,.03,.23,.03,.43-.02,.66-.49,.76-.9Z"/>
        <path class="cls-23" d="M476.27,156c.24,.12,.43,.14,.65,.06,.24-.09,.32-.37,.25-.61l-.63-2.06h-.68l.15,2.18c.01,.18,.1,.35,.26,.43Z"/>
        <path class="cls-23" d="M478.5,155.38l-.84-1.81c-.05-.11-.16-.18-.28-.18h-.5l.41,1.79c.1,.42,.33,.88,.76,.9,.08,0,.15,0,.23-.03,.27-.08,.34-.41,.23-.67Z"/>
        <path class="cls-23" d="M477.4,156.25c-.05,.13-.15,.23-.29,.27-.29,.08-.55,.06-.88-.07-.1-.04-.18-.12-.24-.21-.06,.11-.15,.2-.27,.24-.34,.11-.61,.11-.93,0-.12-.04-.22-.14-.27-.25h-.02c-.05,.1-.14,.18-.24,.22-.31,.13-.56,.15-.85,.07-.14-.04-.23-.14-.28-.26-.04,.06-.1,.11-.16,.14-.21,.11-.39,.15-.58,.13v3.06c0,.12,.1,.22,.22,.22h.49v-2.31c0-.1,.08-.18,.18-.18h1.57c.1,0,.18,.08,.18,.18v2.31h2.84c.12,0,.22-.1,.22-.22v-3.02c-.16,0-.31-.04-.49-.14-.08-.04-.14-.1-.19-.18Zm.1,1.98c0,.09-.07,.15-.15,.15h-1.39c-.09,0-.15-.07-.15-.15v-.71c0-.09,.07-.15,.15-.15h1.39c.09,0,.15,.07,.15,.15v.71Z"/>
      </g>
      <g>
        <path class="cls-23" d="M375.4,250.32c.2-.09,.29-.32,.27-.53l-.26-2.1h-.74l-.19,2.12c-.02,.21,.07,.42,.26,.51,.23,.11,.43,.11,.66,0Z"/>
        <path class="cls-23" d="M373.36,250.36c.22,.08,.41,.06,.65-.06,.16-.08,.25-.25,.26-.43l.15-2.18h-.68l-.63,2.06c-.07,.24,0,.53,.25,.61Z"/>
        <path class="cls-23" d="M372.98,249.47l.41-1.79h-.5c-.12,0-.23,.07-.28,.18l-.84,1.81c-.12,.26-.05,.59,.23,.67,.08,.02,.15,.03,.23,.03,.43-.02,.66-.49,.76-.9Z"/>
        <path class="cls-23" d="M376.1,250.3c.24,.12,.43,.14,.65,.06,.24-.09,.32-.37,.25-.61l-.63-2.06h-.68l.15,2.18c.01,.18,.1,.35,.26,.43Z"/>
        <path class="cls-23" d="M378.33,249.68l-.84-1.81c-.05-.11-.16-.18-.28-.18h-.5l.41,1.79c.1,.42,.33,.88,.76,.9,.08,0,.15,0,.23-.03,.27-.08,.34-.41,.23-.67Z"/>
        <path class="cls-23" d="M377.23,250.55c-.05,.13-.15,.23-.29,.27-.29,.08-.55,.06-.88-.07-.1-.04-.18-.12-.24-.21-.06,.11-.15,.2-.27,.24-.34,.11-.61,.11-.93,0-.12-.04-.22-.14-.27-.25h-.02c-.05,.1-.14,.18-.24,.22-.31,.13-.56,.15-.85,.07-.14-.04-.23-.14-.28-.26-.04,.06-.1,.11-.16,.14-.21,.11-.39,.15-.58,.13v3.06c0,.12,.1,.22,.22,.22h.49v-2.31c0-.1,.08-.18,.18-.18h1.57c.1,0,.18,.08,.18,.18v2.31h2.84c.12,0,.22-.1,.22-.22v-3.02c-.16,0-.31-.04-.49-.14-.08-.04-.14-.1-.19-.18Zm.1,1.98c0,.09-.07,.15-.15,.15h-1.39c-.09,0-.15-.07-.15-.15v-.71c0-.09,.07-.15,.15-.15h1.39c.09,0,.15,.07,.15,.15v.71Z"/>
      </g>
      <g>
        <path class="cls-23" d="M480.57,274.91c.2-.09,.29-.32,.27-.53l-.26-2.1h-.74l-.19,2.12c-.02,.21,.07,.42,.26,.51,.23,.11,.43,.11,.66,0Z"/>
        <path class="cls-23" d="M478.52,274.95c.22,.08,.41,.06,.65-.06,.16-.08,.25-.25,.26-.43l.15-2.18h-.68l-.63,2.06c-.07,.24,0,.53,.25,.61Z"/>
        <path class="cls-23" d="M478.15,274.06l.41-1.79h-.5c-.12,0-.23,.07-.28,.18l-.84,1.81c-.12,.26-.05,.59,.23,.67,.08,.02,.15,.03,.23,.03,.43-.02,.66-.49,.76-.9Z"/>
        <path class="cls-23" d="M481.27,274.89c.24,.12,.43,.14,.65,.06,.24-.09,.32-.37,.25-.61l-.63-2.06h-.68l.15,2.18c.01,.18,.1,.35,.26,.43Z"/>
        <path class="cls-23" d="M483.5,274.27l-.84-1.81c-.05-.11-.16-.18-.28-.18h-.5l.41,1.79c.1,.42,.33,.88,.76,.9,.08,0,.15,0,.23-.03,.27-.08,.34-.41,.23-.67Z"/>
        <path class="cls-23" d="M482.4,275.13c-.05,.13-.15,.23-.29,.27-.29,.08-.55,.06-.88-.07-.1-.04-.18-.12-.24-.21-.06,.11-.15,.2-.27,.24-.34,.11-.61,.11-.93,0-.12-.04-.22-.14-.27-.25h-.02c-.05,.1-.14,.18-.24,.22-.31,.13-.56,.15-.85,.07-.14-.04-.23-.14-.28-.26-.04,.06-.1,.11-.16,.14-.21,.11-.39,.15-.58,.13v3.06c0,.12,.1,.22,.22,.22h.49v-2.31c0-.1,.08-.18,.18-.18h1.57c.1,0,.18,.08,.18,.18v2.31h2.84c.12,0,.22-.1,.22-.22v-3.02c-.16,0-.31-.04-.49-.14-.08-.04-.14-.1-.19-.18Zm.1,1.98c0,.09-.07,.15-.15,.15h-1.39c-.09,0-.15-.07-.15-.15v-.71c0-.09,.07-.15,.15-.15h1.39c.09,0,.15,.07,.15,.15v.71Z"/>
      </g>
      <g>
        <path class="cls-23" d="M300.03,142.95c.2-.09,.29-.32,.27-.53l-.26-2.1h-.74l-.19,2.12c-.02,.21,.07,.42,.26,.51,.23,.11,.43,.11,.66,0Z"/>
        <path class="cls-23" d="M297.99,142.99c.22,.08,.41,.06,.65-.06,.16-.08,.25-.25,.26-.43l.15-2.18h-.68l-.63,2.06c-.07,.24,0,.53,.25,.61Z"/>
        <path class="cls-23" d="M297.61,142.1l.41-1.79h-.5c-.12,0-.23,.07-.28,.18l-.84,1.81c-.12,.26-.05,.59,.23,.67,.08,.02,.15,.03,.23,.03,.43-.02,.66-.49,.76-.9Z"/>
        <path class="cls-23" d="M300.73,142.93c.24,.12,.43,.14,.65,.06,.24-.09,.32-.37,.25-.61l-.63-2.06h-.68l.15,2.18c.01,.18,.1,.35,.26,.43Z"/>
        <path class="cls-23" d="M302.96,142.31l-.84-1.81c-.05-.11-.16-.18-.28-.18h-.5l.41,1.79c.1,.42,.33,.88,.76,.9,.08,0,.15,0,.23-.03,.27-.08,.34-.41,.23-.67Z"/>
        <path class="cls-23" d="M301.86,143.18c-.05,.13-.15,.23-.29,.27-.29,.08-.55,.06-.88-.07-.1-.04-.18-.12-.24-.21-.06,.11-.15,.2-.27,.24-.34,.11-.61,.11-.93,0-.12-.04-.22-.14-.27-.25h-.02c-.05,.1-.14,.18-.24,.22-.31,.13-.56,.15-.85,.07-.14-.04-.23-.14-.28-.26-.04,.06-.1,.11-.16,.14-.21,.11-.39,.15-.58,.13v3.06c0,.12,.1,.22,.22,.22h.49v-2.31c0-.1,.08-.18,.18-.18h1.57c.1,0,.18,.08,.18,.18v2.31h2.84c.12,0,.22-.1,.22-.22v-3.02c-.16,0-.31-.04-.49-.14-.08-.04-.14-.1-.19-.18Zm.1,1.98c0,.09-.07,.15-.15,.15h-1.39c-.09,0-.15-.07-.15-.15v-.71c0-.09,.07-.15,.15-.15h1.39c.09,0,.15,.07,.15,.15v.71Z"/>
      </g>
      <g>
        <path class="cls-23" d="M120.21,102.9c.2-.09,.29-.32,.27-.53l-.26-2.1h-.74l-.19,2.12c-.02,.21,.07,.42,.26,.51,.23,.11,.43,.11,.66,0Z"/>
        <path class="cls-23" d="M118.16,102.94c.22,.08,.41,.06,.65-.06,.16-.08,.25-.25,.26-.43l.15-2.18h-.68l-.63,2.06c-.07,.24,0,.53,.25,.61Z"/>
        <path class="cls-23" d="M117.79,102.05l.41-1.79h-.5c-.12,0-.23,.07-.28,.18l-.84,1.81c-.12,.26-.05,.59,.23,.67,.08,.02,.15,.03,.23,.03,.43-.02,.66-.49,.76-.9Z"/>
        <path class="cls-23" d="M120.91,102.88c.24,.12,.43,.14,.65,.06,.24-.09,.32-.37,.25-.61l-.63-2.06h-.68l.15,2.18c.01,.18,.1,.35,.26,.43Z"/>
        <path class="cls-23" d="M123.14,102.26l-.84-1.81c-.05-.11-.16-.18-.28-.18h-.5l.41,1.79c.1,.42,.33,.88,.76,.9,.08,0,.15,0,.23-.03,.27-.08,.34-.41,.23-.67Z"/>
        <path class="cls-23" d="M122.04,103.12c-.05,.13-.15,.23-.29,.27-.29,.08-.55,.06-.88-.07-.1-.04-.18-.12-.24-.21-.06,.11-.15,.2-.27,.24-.34,.11-.61,.11-.93,0-.12-.04-.22-.14-.27-.25h-.02c-.05,.1-.14,.18-.24,.22-.31,.13-.56,.15-.85,.07-.14-.04-.23-.14-.28-.26-.04,.06-.1,.11-.16,.14-.21,.11-.39,.15-.58,.13v3.06c0,.12,.1,.22,.22,.22h.49v-2.31c0-.1,.08-.18,.18-.18h1.57c.1,0,.18,.08,.18,.18v2.31h2.84c.12,0,.22-.1,.22-.22v-3.02c-.16,0-.31-.04-.49-.14-.08-.04-.14-.1-.19-.18Zm.1,1.98c0,.09-.07,.15-.15,.15h-1.39c-.09,0-.15-.07-.15-.15v-.71c0-.09,.07-.15,.15-.15h1.39c.09,0,.15,.07,.15,.15v.71Z"/>
      </g>
      <g>
        <path class="cls-46" d="M346.5,147.61c.4,.01,.57-.49,.52-.88l-.2-1.61h-.68l-.15,1.64c-.03,.38,.12,.84,.5,.85Z"/>
        <path class="cls-46" d="M345.28,147.61c.32-.05,.5-.41,.52-.73l.12-1.76h-.63l-.47,1.54c-.13,.43,0,1.03,.45,.95Z"/>
        <path class="cls-46" d="M348.47,146.95c.17-.08,.36-.13,.56-.13,.16,0,.32,.03,.46,.08,0-.01-.01-.03-.02-.04l-.54-1.17c-.16-.35-.52-.58-.91-.58l.35,1.52c.02,.1,.05,.21,.09,.31Z"/>
        <path class="cls-46" d="M347.72,147.61s.09,0,.14,0c.07-.2,.2-.37,.36-.5,.02-.15,0-.31-.04-.45l-.47-1.54h-.63l.12,1.76c.02,.32,.2,.68,.52,.73Z"/>
        <path class="cls-46" d="M344.63,146.64l.35-1.52c-.39,0-.75,.23-.91,.58l-.54,1.17c-.13,.28-.04,.67,.26,.72,.47,.06,.73-.48,.83-.94Z"/>
        <path class="cls-46" d="M347.07,150.66l.3-1.11h-.18c-.09,0-.15-.07-.15-.15v-.62c0-.09,.07-.15,.15-.15h.8c-.13-.18-.2-.4-.2-.63,0-.04,0-.08,0-.11-.01,0-.03,0-.04,0-.19-.03-.35-.14-.46-.3h-.26c-.12,.19-.3,.32-.54,.31-.23,0-.4-.13-.51-.31h-.26c-.11,.15-.26,.27-.45,.3-.26,.04-.44-.09-.53-.3h-.22c-.09,.12-.21,.21-.34,.25-.12,.04-.22,.02-.3-.02v2.59c0,.26,.21,.46,.46,.46h.19v-1.98c0-.17,.14-.31,.31-.31h1.16c.17,0,.31,.14,.31,.31v1.98h.88c-.1,0-.16-.1-.14-.2Z"/>
        <path class="cls-46" d="M350.58,150.17c-.22-.61-.8-1.02-1.46-1.02h-.15c-.65,0-1.23,.41-1.46,1.02l-.17,.48c-.04,.1,.04,.21,.15,.21h3.12c.11,0,.18-.11,.15-.21l-.17-.48Z"/>
        <path class="cls-46" d="M348.04,147.99c0,.56,.45,1.01,1.01,1.01s1.01-.45,1.01-1.01-.45-1.01-1.01-1.01-1.01,.45-1.01,1.01Z"/>
      </g>
      <g>
        <path class="cls-46" d="M271.73,143.15c.4,.01,.57-.49,.52-.88l-.2-1.61h-.68l-.15,1.64c-.03,.38,.12,.84,.5,.85Z"/>
        <path class="cls-46" d="M270.5,143.15c.32-.05,.5-.41,.52-.73l.12-1.76h-.63l-.47,1.54c-.13,.43,0,1.03,.45,.95Z"/>
        <path class="cls-46" d="M273.69,142.49c.17-.08,.36-.13,.56-.13,.16,0,.32,.03,.46,.08,0-.01-.01-.03-.02-.04l-.54-1.17c-.16-.35-.52-.58-.91-.58l.35,1.52c.02,.1,.05,.21,.09,.31Z"/>
        <path class="cls-46" d="M272.94,143.15s.09,0,.14,0c.07-.2,.2-.37,.36-.5,.02-.15,0-.31-.04-.45l-.47-1.54h-.63l.12,1.76c.02,.32,.2,.68,.52,.73Z"/>
        <path class="cls-46" d="M269.85,142.18l.35-1.52c-.39,0-.75,.23-.91,.58l-.54,1.17c-.13,.28-.04,.67,.26,.72,.47,.06,.73-.48,.83-.94Z"/>
        <path class="cls-46" d="M272.29,146.19l.3-1.11h-.18c-.09,0-.15-.07-.15-.15v-.62c0-.09,.07-.15,.15-.15h.8c-.13-.18-.2-.4-.2-.63,0-.04,0-.08,0-.11-.01,0-.03,0-.04,0-.19-.03-.35-.14-.46-.3h-.26c-.12,.19-.3,.32-.54,.31-.23,0-.4-.13-.51-.31h-.26c-.11,.15-.26,.27-.45,.3-.26,.04-.44-.09-.53-.3h-.22c-.09,.12-.21,.21-.34,.25-.12,.04-.22,.02-.3-.02v2.59c0,.26,.21,.46,.46,.46h.19v-1.98c0-.17,.14-.31,.31-.31h1.16c.17,0,.31,.14,.31,.31v1.98h.88c-.1,0-.16-.1-.14-.2Z"/>
        <path class="cls-46" d="M275.8,145.71c-.22-.61-.8-1.02-1.46-1.02h-.15c-.65,0-1.23,.41-1.46,1.02l-.17,.48c-.04,.1,.04,.21,.15,.21h3.12c.11,0,.18-.11,.15-.21l-.17-.48Z"/>
        <path class="cls-46" d="M273.26,143.52c0,.56,.45,1.01,1.01,1.01s1.01-.45,1.01-1.01-.45-1.01-1.01-1.01-1.01,.45-1.01,1.01Z"/>
      </g>
    </g>
  </g>
</svg>